<?xml version="1.0" encoding="utf-8"?>
<!-- Generator: Adobe Illustrator 16.0.0, SVG Export Plug-In . SVG Version: 6.00 Build 0)  -->
<!DOCTYPE svg PUBLIC "-//W3C//DTD SVG 1.1//EN" "http://www.w3.org/Graphics/SVG/1.1/DTD/svg11.dtd">
<svg version="1.1" id="Layer_1" xmlns="http://www.w3.org/2000/svg" xmlns:xlink="http://www.w3.org/1999/xlink" x="0px" y="0px"
	 width="522.556px" height="125.415px" viewBox="0 0 522.556 125.415" enable-background="new 0 0 522.556 125.415"
	 xml:space="preserve">
<g id="Background">
	<g>
		<path fill="#FFFFFF" d="M229.048,26.08c1.271-1.351,2.961-2.03,5.052-2.03c2.09,0,3.67,0.391,4.76,1.15l6.07-8.922
			c0,0-1.95-1.43-3.052-1.948c-1.31-0.69-2.879-1.25-4.698-1.67c-1.83-0.431-3.82-0.642-5.979-0.642c-2.709,0-5.209,0.45-7.49,1.32
			c-2.289,0.891-4.279,2.189-5.989,3.88c-1.7,1.7-3.021,3.8-3.95,6.3c-0.92,2.521-1.391,5.392-1.391,8.621v2.319h-9.291v12.83h9.291
			v43.04h14.75v-43.04h11.381v-12.83H227.13V32.14C227.128,29.45,227.77,27.42,229.048,26.08z"/>
		<path fill="#FFFFFF" d="M283.232,72.29c-1.25,1.84-3.041,3.36-5.4,4.56c-2.371,1.2-4.781,1.79-7.26,1.79
			c-4.264,0-7.701-1.5-10.34-4.51c-2.645-3-3.953-6.93-3.953-11.79c0-4.87,1.311-8.78,3.953-11.739
			c2.639-2.979,6.076-4.461,10.34-4.461c2.479,0,4.889,0.62,7.26,1.86c2.359,1.229,4.15,2.771,5.4,4.62V72.29z M283.232,41.63
			c-2.25-2.93-4.854-5.09-7.844-6.48c-2.979-1.39-6.131-2.08-9.471-2.08c-3.559,0-6.869,0.672-9.92,2.031
			c-3.068,1.351-5.699,3.271-7.898,5.779c-2.21,2.51-3.939,5.57-5.17,9.189c-1.24,3.641-1.86,7.721-1.86,12.271
			c0,4.7,0.632,8.86,1.91,12.49c1.29,3.62,3.021,6.688,5.229,9.188c2.209,2.513,4.84,4.423,7.899,5.73
			c3.05,1.32,6.331,1.97,9.81,1.97c3.49,0,6.68-0.729,9.58-2.2c2.91-1.46,5.48-3.59,7.73-6.357v7.17h14.859V34.46H283.23v7.17
			H283.232z"/>
		<path fill="#FFFFFF" d="M373.701,33.069c-2.17,0-4.23,0.291-6.209,0.871c-1.975,0.58-3.801,1.34-5.461,2.311
			s-3.16,2.04-4.473,3.24c-1.311,1.189-2.367,2.42-3.131,3.648c-1.01-3.16-2.809-5.64-5.41-7.398
			c-2.6-1.78-5.979-2.672-10.156-2.672c-2.17,0-4.223,0.291-6.16,0.871c-1.934,0.58-3.709,1.311-5.34,2.189
			c-1.629,0.891-3.021,1.84-4.184,2.84c-1.16,1.01-2.049,1.891-2.67,2.66v-7.17h-14.75v55.87h14.75V52.62
			c1.08-1.54,2.65-3.012,4.701-4.4c2.049-1.39,4.359-2.08,6.92-2.08c3.01,0,5.16,0.83,6.439,2.49c1.27,1.648,1.92,3.79,1.92,6.42
			v35.28h14.871V52.62c1.068-1.54,2.629-3.012,4.639-4.4s4.34-2.08,6.971-2.08c3.014,0,5.17,0.83,6.449,2.49
			c1.271,1.648,1.9,3.79,1.9,6.42v35.28h14.883V49.96c0-5.79-1.451-10.05-4.361-12.779C382.941,34.44,378.888,33.069,373.701,33.069
			z"/>
		<rect x="400.179" y="34.46" fill="#FFFFFF" width="14.75" height="55.87"/>
		<path fill="#FFFFFF" d="M407.492,10.979c-2.395,0-4.441,0.83-6.145,2.48c-1.709,1.67-2.566,3.721-2.566,6.189
			c0,2.471,0.857,4.551,2.566,6.25c1.701,1.699,3.75,2.551,6.145,2.551c2.49,0,4.566-0.852,6.275-2.551
			c1.701-1.699,2.562-3.779,2.562-6.25s-0.861-4.521-2.562-6.189C412.058,11.81,409.982,10.979,407.492,10.979z"/>
		<path fill="#FFFFFF" d="M447.861,78.13c-0.973,0.34-2,0.51-3.08,0.51c-1.629,0-2.893-0.59-3.779-1.79
			c-0.891-1.197-1.33-2.67-1.33-4.447v-59.23h-14.75v63.16c0,10.26,5.26,15.39,15.789,15.39c3.031,0,5.561-0.357,7.611-1.04
			c2.049-0.688,3.619-1.54,4.709-2.55l-3.143-11.22C449.5,77.38,448.822,77.781,447.861,78.13z"/>
		<path fill="#FFFFFF" d="M494.371,34.46v35.4c-1.33,1.607-3.07,3.08-5.24,4.39c-2.16,1.31-4.68,1.96-7.539,1.96
			c-3.18,0-5.689-0.74-7.551-2.25c-1.859-1.5-2.789-4.18-2.789-8.04V34.46H456.5v37.25c0,5.48,1.469,9.771,4.42,12.9
			c2.93,3.12,7.51,4.68,13.699,4.68c4.641,0,8.611-0.89,11.898-2.66c3.303-1.78,5.91-3.7,7.852-5.79v5.79
			c0,2-0.352,3.87-1.049,5.603c-0.701,1.75-1.682,3.25-2.973,4.52c-1.27,1.27-2.84,2.29-4.697,3.06
			c-1.852,0.78-3.98,1.16-6.393,1.16c-2.938,0-5.979-0.52-9.107-1.55c-3.143-1.06-5.711-2.8-7.73-5.27l-6.621,10.52
			c6.354,5.55,14.17,8.33,23.461,8.33c4.49,0,8.562-0.57,12.199-1.74c3.641-1.147,6.771-2.87,9.41-5.14
			c2.621-2.28,4.66-5.05,6.1-8.33c1.432-3.28,2.145-7,2.145-11.16v-52.17L494.371,34.46L494.371,34.46z"/>
	</g>
	<g>
		<path fill="#B9DFF3" d="M38.22,10.979c-2.39,0-4.44,0.83-6.15,2.48c-1.71,1.67-2.55,3.721-2.55,6.189
			c0,2.471,0.84,4.551,2.55,6.25s3.76,2.551,6.15,2.551c2.49,0,4.57-0.852,6.28-2.551c1.7-1.699,2.56-3.779,2.56-6.25
			s-0.86-4.521-2.56-6.189C42.79,11.81,40.71,10.979,38.22,10.979z"/>
		<path fill="#B9DFF3" d="M30.91,91.84c0,3.15-0.72,5.47-2.14,6.94c-1.44,1.45-3.28,2.188-5.52,2.188c-1.71,0-3.12-0.25-4.25-0.75
			c-0.29-0.13-0.59-0.277-0.88-0.45c-1.05-0.647-1.85-1.46-2.23-1.92l-0.18,0.24l-0.02-0.01l-0.02,0.05
			c-1.4,1.79-6.67,8.65-6.67,8.65s2.74,4.607,10.81,5.8c0.02,0,0.03,0,0.05,0c0.41,0.068,0.81,0.14,1.24,0.188
			c1.27,0.15,2.8,0.23,4.58,0.23c6.74,0,11.75-1.93,15.05-5.78c3.28-3.858,4.93-8.99,4.93-15.38v-57.38H30.91V91.84z"/>
		<path fill="#B9DFF3" d="M91.18,72.29c-1.31,1.61-3.05,3.08-5.22,4.39c-2.17,1.32-4.69,1.96-7.55,1.96c-3.18,0-5.69-0.75-7.55-2.25
			c-1.86-1.5-2.79-4.188-2.79-8.04V34.46H53.32v39.67c0,5.48,1.47,9.78,4.42,12.9c2.94,3.12,7.5,4.688,13.7,4.688
			c4.65,0,8.62-0.88,11.91-2.66c3.29-1.777,5.9-3.697,7.83-5.777v7.05h14.76V34.46H91.18V72.29L91.18,72.29z"/>
		<path fill="#B9DFF3" d="M149.55,59.56c-2.44-1.31-5.11-2.3-8.01-2.949c-2.91-0.649-5.59-1.239-8.02-1.739
			c-2.44-0.49-4.49-1.07-6.15-1.729c-1.67-0.66-2.51-1.671-2.51-3.07c0-1.541,0.8-2.829,2.38-3.869c1.59-1.04,3.74-1.561,6.45-1.561
			c3.48,0,6.7,0.629,9.64,1.899c1.89,0.819,3.52,1.739,4.89,2.76c2.41-2.68,8-8.59,8-8.59c-2.78-2.25-6.06-4.069-9.81-5.5
			c-3.76-1.431-8-2.142-12.72-2.142c-3.71,0-7,0.48-9.87,1.451c-2.87,0.971-5.27,2.25-7.2,3.859c-1.93,1.63-3.41,3.5-4.42,5.62
			c-1,2.12-1.5,4.34-1.5,6.66c0,3.688,0.81,6.63,2.44,8.79c1.62,2.158,3.67,3.85,6.15,5.08c2.47,1.237,5.15,2.14,8.01,2.729
			c2.87,0.562,5.54,1.12,8.02,1.67c2.48,0.54,4.52,1.17,6.16,1.91c1.62,0.73,2.44,1.87,2.44,3.41c0,1.78-0.76,3.2-2.27,4.28
			c-1.51,1.08-3.89,1.62-7.14,1.62c-1.79,0-3.59-0.21-5.4-0.643c-1.83-0.42-3.61-0.99-5.35-1.729c-1.74-0.73-3.36-1.57-4.87-2.49
			c-0.76-0.46-1.45-0.93-2.08-1.41c-1.37,1.9-8.09,9.17-8.09,9.17c2.94,2.69,6.64,4.812,11.09,6.353c4.46,1.55,9.13,2.317,14,2.317
			c7.82,0,13.84-1.68,18.06-5.04c4.22-3.35,6.33-7.607,6.33-12.777c0-3.771-0.84-6.78-2.5-9.021
			C154.04,62.64,151.99,60.88,149.55,59.56z"/>
		<path fill="#B9DFF3" d="M193.95,76.481c-0.79,1.17-2.37,2.277-4.39,2.157c-1.63-0.09-2.89-0.59-3.78-1.79
			c-0.89-1.197-1.33-2.67-1.33-4.447v-25.11h11.38v-12.83h-11.38V19.19h-14.76v15.271h-9.29v12.83h9.29v29.04
			c0,10.26,5.27,15.39,15.8,15.39c3.1,0,5.65-0.357,7.67-1.04c3.03-1.04,7.1-3.277,9.6-7.84L193.95,76.481z"/>
	</g>
</g>
<g id="Layer_1_1_">
</g>
</svg>
