<svg version="1" xmlns="http://www.w3.org/2000/svg" width="185" height="180"><path fill="#00AAA0" d="M82.074 71.447s-.006-38.164 0-40.808c.005-2.646 3.306-9.803 13.402-10.332h27.738s3.14.579 3.14 2.9v38.785s-.904 2.132-3.141 2.132h-29.246c0 .001-7.774.304-11.893 7.323"/><path fill="#00AAA0" d="M74.867 51.043s-.093-38.201 0-40.808c.093-2.607-1.123-9.092-12.135-10.235h-27.742s-1.682.483-2.342 2.805v38.784s.109 2.231 2.344 2.231h29.248c-.001-.001 6.51.204 10.627 7.223"/><path fill="#fff" d="M14.251 96c-6.41 0-10.888-5.075-10.888-12.342 0-7.266 4.478-12.34 10.888-12.34 5.412.036 9.205 3.209 9.662 8.084l.012.141h-4.175l-.025-.098c-.742-3.012-2.583-4.538-5.473-4.538-4.944 0-6.697 4.713-6.697 8.751s1.753 8.752 6.697 8.752c3.717 0 5.327-3.092 5.596-5.988l.011-.118h4.093l-.008.136c-.32 5.719-4.216 9.56-9.693 9.56z"/><path stroke="#fff" stroke-width=".518" stroke-miterlimit="10" d="M14.251 96c-6.41 0-10.888-5.075-10.888-12.342 0-7.266 4.478-12.34 10.888-12.34 5.412.036 9.205 3.209 9.662 8.084l.012.141h-4.175l-.025-.098c-.742-3.012-2.583-4.538-5.473-4.538-4.944 0-6.697 4.713-6.697 8.751s1.753 8.752 6.697 8.752c3.717 0 5.327-3.092 5.596-5.988l.011-.118h4.093l-.008.136c-.32 5.719-4.216 9.56-9.693 9.56z" fill="none"/><path fill="#fff" d="M37.46 95.444v-10.74c-.062-2.528-1.002-3.659-3.05-3.659-2.236 0-3.8 1.773-3.8 4.312v10.087h-3.847v-23.572h3.847v8.439c.954-1.483 2.828-2.465 4.809-2.465 3.741 0 5.886 2.144 5.886 5.879v11.719h-3.845z"/><path stroke="#fff" stroke-width=".518" stroke-miterlimit="10" d="M37.46 95.444v-10.74c-.062-2.528-1.002-3.659-3.05-3.659-2.236 0-3.8 1.773-3.8 4.312v10.087h-3.847v-23.572h3.847v8.439c.954-1.483 2.828-2.465 4.809-2.465 3.741 0 5.886 2.144 5.886 5.879v11.719h-3.845z" fill="none"/><path fill="#fff" d="M56.777 95.901c-1.59 0-2.523-.631-2.848-1.931-1.525 1.42-3.846 1.931-5.552 1.931-2.836 0-5.698-1.564-5.698-5.06 0-4.266 3.291-5.017 6.375-5.384.539-.104 1.075-.172 1.579-.237 1.847-.237 3.183-.409 3.183-2.02 0-1.783-1.759-2.157-3.235-2.157-2.086 0-3.314.911-3.46 2.561l-.009.117h-3.842l.008-.136c.288-4.994 4.838-5.74 7.524-5.74 3.064 0 6.641 1.316 6.641 5.027v8.687c0 .979.222 1.144.719 1.144.22 0 .491 0 .858-.062l.152-.027v2.823l-.083.032c-.536.195-1.687.432-2.312.432zm-3.182-8.809c-.787.45-1.809.576-2.886.709-.456.055-.916.114-1.364.196-1.396.236-2.82.741-2.82 2.684 0 1.601 2.077 2.023 3.173 2.023 1.567 0 3.897-.817 3.897-3.07v-2.542z"/><path stroke="#fff" stroke-width=".518" stroke-miterlimit="10" d="M56.777 95.901c-1.59 0-2.523-.631-2.848-1.931-1.525 1.42-3.846 1.931-5.552 1.931-2.836 0-5.698-1.564-5.698-5.06 0-4.266 3.291-5.017 6.375-5.384.539-.104 1.075-.172 1.579-.237 1.847-.237 3.183-.409 3.183-2.02 0-1.783-1.759-2.157-3.235-2.157-2.086 0-3.314.911-3.46 2.561l-.009.117h-3.842l.008-.136c.288-4.994 4.838-5.74 7.524-5.74 3.064 0 6.641 1.316 6.641 5.027v8.687c0 .979.222 1.144.719 1.144.22 0 .491 0 .858-.062l.152-.027v2.823l-.083.032c-.536.195-1.687.432-2.312.432zm-3.182-8.809c-.787.45-1.809.576-2.886.709-.456.055-.916.114-1.364.196-1.396.236-2.82.741-2.82 2.684 0 1.601 2.077 2.023 3.173 2.023 1.567 0 3.897-.817 3.897-3.07v-2.542z" fill="none"/><path fill="#fff" d="M66.116 95.609c-3.805 0-4.563-1.559-4.628-4.436v-9.833h-2.703v-3.034h2.703v-5.061h3.846v5.061h3.242v3.034h-3.242v8.883c0 1.554.146 2.187 1.602 2.187.509 0 .991 0 1.48-.127l.16-.042v3.161l-.118.01c-.269.021-.532.052-.795.083-.502.056-1.02.114-1.547.114z"/><path stroke="#fff" stroke-width=".518" stroke-miterlimit="10" d="M66.116 95.609c-3.805 0-4.563-1.559-4.628-4.436v-9.833h-2.703v-3.034h2.703v-5.061h3.846v5.061h3.242v3.034h-3.242v8.883c0 1.554.146 2.187 1.602 2.187.509 0 .991 0 1.48-.127l.16-.042v3.161l-.118.01c-.269.021-.532.052-.795.083-.502.056-1.02.114-1.547.114z" fill="none"/><path fill="#fff" d="M71.118 72.005h3.585v8.617h.063c.975-1.631 3.02-2.645 4.844-2.645 5.126 0 7.614 4.048 7.614 8.979 0 4.539-2.204 8.816-7.018 8.816-2.201 0-4.56-.555-5.631-2.774h-.062v2.318h-3.396v-23.311zm8.022 8.912c-3.021 0-4.563 2.382-4.563 5.973 0 3.397 1.67 5.943 4.563 5.943 3.271 0 4.498-3.004 4.498-5.943-.001-3.067-1.542-5.973-4.498-5.973"/><path stroke="#fff" stroke-width=".518" stroke-miterlimit="10" d="M71.118 72.005h3.585v8.617h.063c.975-1.631 3.02-2.645 4.844-2.645 5.126 0 7.614 4.048 7.614 8.979 0 4.539-2.204 8.816-7.018 8.816-2.201 0-4.56-.555-5.631-2.774h-.062v2.318h-3.396v-23.311zm8.022 8.912c-3.021 0-4.563 2.382-4.563 5.973 0 3.397 1.67 5.943 4.563 5.943 3.271 0 4.498-3.004 4.498-5.943-.001-3.067-1.542-5.973-4.498-5.973" fill="none"/><path fill="#fff" d="M88.856 86.857c0-5.158 2.99-8.88 8.213-8.88 5.221 0 8.209 3.722 8.209 8.88 0 5.193-2.989 8.915-8.209 8.915-5.223 0-8.213-3.721-8.213-8.915m12.837 0c0-2.905-1.417-5.94-4.625-5.94-3.21 0-4.625 3.036-4.625 5.94 0 2.94 1.415 5.976 4.625 5.976 3.209 0 4.625-3.036 4.625-5.976"/><path stroke="#fff" stroke-width=".518" stroke-miterlimit="10" d="M88.856 86.857c0-5.158 2.99-8.88 8.213-8.88 5.221 0 8.209 3.722 8.209 8.88 0 5.193-2.989 8.915-8.209 8.915-5.223 0-8.213-3.721-8.213-8.915m12.837 0c0-2.905-1.417-5.94-4.625-5.94-3.21 0-4.625 3.036-4.625 5.94 0 2.94 1.415 5.976 4.625 5.976 3.209 0 4.625-3.036 4.625-5.976" fill="none"/><path fill="#fff" d="M106.881 86.857c0-5.158 2.99-8.88 8.208-8.88 5.223 0 8.212 3.722 8.212 8.88 0 5.193-2.989 8.915-8.212 8.915-5.218 0-8.208-3.721-8.208-8.915m12.834 0c0-2.905-1.418-5.94-4.626-5.94s-4.623 3.036-4.623 5.94c0 2.94 1.416 5.976 4.623 5.976 3.208 0 4.626-3.036 4.626-5.976"/><path stroke="#fff" stroke-width=".518" stroke-miterlimit="10" d="M106.881 86.857c0-5.158 2.99-8.88 8.208-8.88 5.223 0 8.212 3.722 8.212 8.88 0 5.193-2.989 8.915-8.212 8.915-5.218 0-8.208-3.721-8.208-8.915m12.834 0c0-2.905-1.418-5.94-4.626-5.94s-4.623 3.036-4.623 5.94c0 2.94 1.416 5.976 4.623 5.976 3.208 0 4.626-3.036 4.626-5.976" fill="none"/><polygon fill="#fff" points="136.376,95.444 131.453,87.328 129.43,89.368 129.468,95.444 125.623,95.444 125.623,71.872 129.468,71.872 129.468,84.936 135.725,78.345 140.538,78.306 134.158,84.656 141.059,95.444"/><polygon stroke="#fff" stroke-width=".518" stroke-miterlimit="10" points="136.376,95.444 131.453,87.328 129.43,89.368 129.468,95.444 125.623,95.444 125.623,71.872 129.468,71.872 129.468,84.936 135.725,78.345 140.538,78.306 134.158,84.656 141.059,95.444" fill="none"/><path fill="#fff" d="M148.244 95.901c-4.535 0-7.276-2.246-7.335-6.004l-.002-.13h3.835l.01.117c.206 2.331 2.044 2.82 3.553 2.82.831 0 2.339-.114 3.07-.882.301-.316.441-.719.419-1.201-.077-1.575-1.929-1.972-4.075-2.435-.375-.082-.759-.165-1.144-.256-2.763-.613-5.323-1.659-5.323-5.12 0-3.661 3.731-4.964 6.925-4.964 4.004 0 6.528 1.935 6.924 5.308l.018.144h-3.996l-.02-.107c-.259-1.442-1.3-2.146-3.178-2.146-.663 0-2.827.114-2.827 1.6 0 1.464 1.875 1.866 4.049 2.334l1.135.253c2.781.659 5.353 1.727 5.353 5.055.002 4.144-3.981 5.614-7.391 5.614z"/><path stroke="#fff" stroke-width=".518" stroke-miterlimit="10" d="M148.244 95.901c-4.535 0-7.276-2.246-7.335-6.004l-.002-.13h3.835l.01.117c.206 2.331 2.044 2.82 3.553 2.82.831 0 2.339-.114 3.07-.882.301-.316.441-.719.419-1.201-.077-1.575-1.929-1.972-4.075-2.435-.375-.082-.759-.165-1.144-.256-2.763-.613-5.323-1.659-5.323-5.12 0-3.661 3.731-4.964 6.925-4.964 4.004 0 6.528 1.935 6.924 5.308l.018.144h-3.996l-.02-.107c-.259-1.442-1.3-2.146-3.178-2.146-.663 0-2.827.114-2.827 1.6 0 1.464 1.875 1.866 4.049 2.334l1.135.253c2.781.659 5.353 1.727 5.353 5.055.002 4.144-3.981 5.614-7.391 5.614z" fill="none"/><g fill="#86C440"><path d="M176.287 145.949c0 1.074-.873 1.945-1.95 1.945h-28.674c-1.077 0-1.951-.871-1.951-1.945v-25.503c0-1.074.874-1.944 1.951-1.944h28.674c1.077 0 1.95.87 1.95 1.944v25.503z"/><rect x="143.682" y="118.502" width="32.637" height="13.396"/><path d="M185 136.409c0 1.911-1.553 3.461-3.471 3.461-1.916 0-3.471-1.55-3.471-3.461v-15.553c0-1.912 1.555-3.461 3.471-3.461 1.918 0 3.471 1.549 3.471 3.461v15.553zm-43.058 0c0 1.911-1.554 3.461-3.471 3.461s-3.471-1.55-3.471-3.461v-15.553c0-1.912 1.554-3.461 3.471-3.461s3.471 1.549 3.471 3.461v15.553zm18.058-33.549c-15.823-.048-16.183 13.726-16.183 13.726h32.366s-.51-13.677-16.183-13.726zm-7.103 8.637c-1.076 0-1.948-.87-1.948-1.943 0-1.072.873-1.942 1.948-1.942s1.948.87 1.948 1.942c0 1.073-.872 1.943-1.948 1.943zm14.206 0c-1.076 0-1.948-.87-1.948-1.943 0-1.072.872-1.942 1.948-1.942 1.075 0 1.948.87 1.948 1.942 0 1.073-.873 1.943-1.948 1.943zm-14.742-6.785c.057.081.234.055.396-.059.159-.112.243-.271.186-.351l-3.023-4.255c-.058-.082-.235-.055-.394.058-.161.114-.244.271-.187.353l3.022 4.254zm15.278 0c-.058.081-.233.055-.396-.059-.159-.112-.243-.271-.186-.351l3.023-4.255c.058-.082.236-.055.395.058.161.114.245.271.186.353l-3.022 4.254zm2.53 51.827c0 1.912-1.554 3.461-3.471 3.461s-3.471-1.549-3.471-3.461v-15.554c0-1.911 1.554-3.461 3.471-3.461s3.471 1.55 3.471 3.461v15.554zm-13.397 0c0 1.912-1.554 3.461-3.471 3.461s-3.471-1.549-3.471-3.461v-15.554c0-1.911 1.554-3.461 3.471-3.461s3.471 1.55 3.471 3.461v15.554z"/></g><path fill="#fff" d="M134.106 135.278c0 2.116-1.716 3.832-3.837 3.832h-125.538c-2.121 0-3.841-1.715-3.841-3.832v-30.552c0-2.116 1.721-3.837 3.841-3.837h125.537c2.122 0 3.836 1.721 3.836 3.837l.002 30.552z"/><path fill="#A7A6A6" d="M130.269 140h-125.538c-2.607 0-4.731-2.119-4.731-4.722v-30.551c0-2.606 2.124-4.727 4.731-4.727h125.537c2.605 0 4.731 2.121 4.731 4.727v30.551c.003 2.603-2.123 4.722-4.73 4.722z"/><path fill="#010101" d="M134.106 135.278c0 2.116-1.716 3.832-3.837 3.832h-125.538c-2.121 0-3.841-1.715-3.841-3.832v-30.552c0-2.116 1.721-3.837 3.841-3.837h125.537c2.122 0 3.836 1.721 3.836 3.837l.002 30.552z"/><path fill="#fff" d="M30.145 119.79c-.029-3.224 2.641-4.793 2.763-4.866-1.513-2.204-3.856-2.505-4.68-2.528-1.967-.207-3.876 1.177-4.879 1.177-1.023 0-2.566-1.157-4.231-1.123-2.141.033-4.143 1.271-5.241 3.196-2.268 3.924-.578 9.691 1.595 12.863 1.086 1.555 2.355 3.288 4.017 3.227 1.626-.065 2.233-1.037 4.197-1.037 1.943 0 2.514 1.037 4.208.997 1.745-.026 2.845-1.559 3.893-3.127 1.256-1.78 1.76-3.535 1.78-3.624-.041-.013-3.389-1.292-3.422-5.155z"/><path fill="#fff" d="M26.943 110.309c.874-1.094 1.473-2.582 1.306-4.09-1.265.056-2.847.875-3.76 1.944-.805.942-1.525 2.486-1.339 3.938 1.42.108 2.881-.716 3.793-1.792z"/><linearGradient id="a" gradientUnits="userSpaceOnUse" x1="15.014" y1="685.107" x2="15.014" y2="649.053" gradientTransform="translate(84 -545)"><stop offset="0" stop-color="#1A1A1A" stop-opacity=".1"/><stop offset=".123" stop-color="#212121" stop-opacity=".151"/><stop offset=".308" stop-color="#353635" stop-opacity=".227"/><stop offset=".532" stop-color="#575858" stop-opacity=".318"/><stop offset=".783" stop-color="#858585" stop-opacity=".421"/><stop offset="1" stop-color="#B4B4B4" stop-opacity=".51"/></linearGradient><path fill="url(#a)" d="M130.269 100h-67.241l26.338 40h40.903c2.605 0 4.731-2.119 4.731-4.725v-30.548c.002-2.606-2.124-4.727-4.731-4.727z"/><path d="M53.695 131.513h-2.272l-1.245-3.911h-4.326l-1.186 3.911h-2.213l4.289-13.312h2.646l4.307 13.312zm-3.892-5.551l-1.126-3.475c-.118-.356-.343-1.191-.67-2.508h-.04c-.132.565-.344 1.401-.633 2.508l-1.105 3.475h3.574zm14.895.633c0 1.632-.443 2.923-1.33 3.87-.794.843-1.782 1.264-2.959 1.264-1.272 0-2.186-.453-2.742-1.361v5.036h-2.133v-10.335c0-1.025-.025-2.076-.077-3.155h1.875l.119 1.521h.041c.711-1.146 1.792-1.72 3.241-1.72 1.132 0 2.077.447 2.833 1.341.754.9 1.132 2.078 1.132 3.539zm-2.172.078c0-.934-.211-1.704-.633-2.311-.461-.631-1.081-.948-1.857-.948-.526 0-1.004.175-1.432.524-.428.349-.708.807-.84 1.373-.064.265-.099.48-.099.649v1.603c0 .695.215 1.285.643 1.767.43.48.985.721 1.67.721.804 0 1.429-.31 1.875-.927.448-.62.673-1.437.673-2.451zm13.216-.078c0 1.632-.443 2.923-1.332 3.87-.794.843-1.781 1.264-2.959 1.264-1.271 0-2.186-.453-2.742-1.361v5.036h-2.134v-10.335c0-1.025-.026-2.076-.08-3.155h1.876l.119 1.521h.041c.71-1.146 1.791-1.72 3.239-1.72 1.131 0 2.079.447 2.836 1.341.756.9 1.136 2.078 1.136 3.539zm-2.174.078c0-.934-.212-1.704-.633-2.311-.462-.631-1.079-.948-1.855-.948-.526 0-1.005.175-1.435.524-.427.349-.708.807-.838 1.373-.066.265-.101.48-.101.649v1.603c0 .695.215 1.285.642 1.767.427.48.983.721 1.671.721.804 0 1.43-.31 1.875-.927.449-.62.674-1.437.674-2.451zm14.521 1.107c0 1.133-.396 2.054-1.183 2.765-.867.776-2.077 1.165-3.628 1.165-1.433 0-2.581-.275-3.447-.829l.494-1.777c.934.554 1.962.829 3.081.829.804 0 1.429-.18 1.876-.543.448-.361.673-.844.673-1.45 0-.542-.186-.996-.554-1.364-.369-.368-.979-.711-1.836-1.026-2.332-.87-3.499-2.141-3.499-3.813 0-1.092.413-1.986 1.235-2.684.822-.699 1.913-1.048 3.269-1.048 1.212 0 2.223.21 3.023.632l-.535 1.739c-.754-.409-1.606-.614-2.559-.614-.753 0-1.343.187-1.766.555-.354.329-.535.729-.535 1.206 0 .525.205.962.613 1.303.354.316 1 .659 1.936 1.027 1.146.462 1.988 1.001 2.528 1.619.543.615.814 1.388.814 2.308zm7.07-4.266h-2.351v4.66c0 1.186.414 1.777 1.245 1.777.38 0 .696-.032.947-.098l.059 1.62c-.42.156-.973.236-1.659.236-.843 0-1.5-.258-1.977-.772-.472-.515-.709-1.376-.709-2.588v-4.839h-1.402v-1.601h1.402v-1.758l2.095-.63v2.388h2.351v1.605h-.001zm10.588 3.12c0 1.476-.421 2.687-1.265 3.634-.882.974-2.055 1.461-3.516 1.461-1.411 0-2.532-.467-3.369-1.4-.837-.936-1.254-2.114-1.254-3.535 0-1.488.432-2.704 1.293-3.653.863-.947 2.026-1.422 3.487-1.422 1.41 0 2.542.469 3.397 1.403.82.906 1.227 2.077 1.227 3.512zm-2.212.049c0-.879-.19-1.634-.57-2.264-.447-.762-1.09-1.143-1.917-1.143-.854 0-1.511.381-1.956 1.143-.383.63-.573 1.398-.573 2.305 0 .88.19 1.636.573 2.265.46.764 1.104 1.144 1.938 1.144.815 0 1.454-.39 1.917-1.162.392-.647.588-1.406.588-2.288zm9.149-2.893c-.211-.039-.436-.059-.671-.059-.751 0-1.331.282-1.739.849-.356.501-.534 1.133-.534 1.895v5.038h-2.133v-6.577c0-1.105-.021-2.114-.062-3.021h1.858l.079 1.836h.06c.227-.632.58-1.14 1.066-1.521.476-.345.989-.516 1.542-.516.197 0 .375.014.532.039l.002 2.037zm9.541 2.47c0 .381-.026.704-.078.967h-6.4c.023.948.334 1.673.929 2.174.54.446 1.238.669 2.093.669.948 0 1.812-.149 2.589-.452l.334 1.479c-.907.396-1.981.592-3.218.592-1.49 0-2.658-.437-3.508-1.311-.847-.876-1.273-2.053-1.273-3.525 0-1.446.394-2.651 1.186-3.613.829-1.026 1.948-1.539 3.356-1.539 1.384 0 2.433.513 3.143 1.539.562.813.847 1.822.847 3.02zm-2.035-.554c.013-.633-.125-1.178-.415-1.638-.37-.596-.938-.893-1.699-.893-.697 0-1.265.29-1.699.871-.354.46-.565 1.016-.631 1.658l4.444.002z" fill="#fff"/><path d="M45.236 113.495c-.593 0-1.107-.028-1.535-.078v-6.436c.554-.087 1.155-.136 1.807-.136 2.446 0 3.573 1.203 3.573 3.165.001 2.263-1.331 3.485-3.845 3.485zm.358-5.826c-.33 0-.61.021-.845.068v4.892c.127.02.369.03.709.03 1.603 0 2.515-.912 2.515-2.621 0-1.522-.825-2.369-2.379-2.369zm6.998 5.875c-1.378 0-2.273-1.031-2.273-2.427 0-1.458.913-2.495 2.351-2.495 1.358 0 2.272.979 2.272 2.417.001 1.474-.941 2.505-2.35 2.505zm.04-4.156c-.757 0-1.242.709-1.242 1.699 0 .972.495 1.679 1.232 1.679s1.232-.757 1.232-1.699c0-.96-.485-1.679-1.222-1.679zm10.171-.668l-1.475 4.717h-.962l-.611-2.049c-.154-.514-.281-1.019-.379-1.523h-.02c-.077.515-.224 1.029-.379 1.523l-.65 2.049h-.97l-1.39-4.717h1.079l.534 2.242c.125.533.232 1.039.319 1.514h.021c.077-.396.204-.893.388-1.504l.67-2.251h.854l.642 2.204c.156.533.281 1.058.379 1.553h.029c.066-.485.174-1 .318-1.553l.575-2.204 1.028-.001zm5.434 4.717h-1.048v-2.709c0-.835-.321-1.252-.951-1.252-.623 0-1.051.534-1.051 1.156v2.806h-1.047v-3.369c0-.418-.011-.864-.039-1.35h.923l.049.727h.029c.282-.503.854-.822 1.495-.822.99 0 1.642.757 1.642 1.989l-.002 2.824zm2.891 0h-1.048v-6.884h1.049v6.884zm3.825.107c-1.378 0-2.272-1.031-2.272-2.427 0-1.458.912-2.495 2.35-2.495 1.359 0 2.27.979 2.27 2.417.001 1.474-.941 2.505-2.348 2.505zm.039-4.156c-.758 0-1.244.709-1.244 1.699 0 .972.497 1.679 1.232 1.679.737 0 1.232-.757 1.232-1.699.002-.96-.483-1.679-1.22-1.679zm6.444 4.049l-.075-.543h-.029c-.321.437-.788.651-1.379.651-.846 0-1.446-.592-1.446-1.388 0-1.166 1.01-1.768 2.756-1.768v-.086c0-.623-.328-.933-.978-.933-.466 0-.875.116-1.233.349l-.213-.688c.436-.272.98-.408 1.621-.408 1.232 0 1.854.649 1.854 1.951v1.738c0 .475.021.843.068 1.125h-.946zm-.144-2.35c-1.165 0-1.749.282-1.749.952 0 .495.301.736.719.736.532 0 1.03-.407 1.03-.96v-.728zm6.113 2.35l-.048-.758h-.03c-.301.573-.807.865-1.514.865-1.139 0-1.981-1-1.981-2.408 0-1.476.873-2.514 2.066-2.514.632 0 1.079.212 1.331.64h.021v-2.709h1.048v5.612c0 .457.012.883.04 1.272h-.933zm-.155-2.776c0-.66-.438-1.223-1.105-1.223-.779 0-1.253.689-1.253 1.659 0 .951.493 1.603 1.232 1.603.659 0 1.125-.574 1.125-1.253v-.786h.001zm7.706 2.883c-1.379 0-2.273-1.031-2.273-2.427 0-1.458.913-2.495 2.35-2.495 1.359 0 2.271.979 2.271 2.417.001 1.474-.94 2.505-2.348 2.505zm.038-4.156c-.757 0-1.242.709-1.242 1.699 0 .972.496 1.679 1.232 1.679.738 0 1.232-.757 1.232-1.699.002-.96-.484-1.679-1.222-1.679zm7.95 4.049h-1.05v-2.709c0-.835-.32-1.252-.952-1.252-.621 0-1.047.534-1.047 1.156v2.806h-1.048v-3.369c0-.418-.01-.864-.039-1.35h.921l.049.727h.029c.282-.503.855-.823 1.496-.823.99 0 1.642.757 1.642 1.988v2.826zm7.055-3.932h-1.154v2.291c0 .582.201.874.61.874.186 0 .34-.021.465-.049l.028.796c-.202.079-.474.117-.812.117-.826 0-1.322-.457-1.322-1.65v-2.379h-.686v-.785h.686v-.864l1.03-.312v1.174h1.154v.787h.001zm5.551 3.932h-1.048v-2.688c0-.845-.32-1.272-.951-1.272-.543 0-1.05.368-1.05 1.117v2.843h-1.048v-6.884h1.048v2.835h.02c.331-.513.809-.766 1.419-.766.999 0 1.61.775 1.61 2.009v2.806zm5.686-2.107h-3.146c.02.892.612 1.397 1.488 1.397.466 0 .894-.079 1.272-.223l.162.728c-.445.195-.97.292-1.583.292-1.475 0-2.349-.934-2.349-2.379 0-1.446.893-2.533 2.23-2.533 1.206 0 1.963.893 1.963 2.242.001.186-.006.349-.037.476zm-.961-.747c0-.729-.368-1.242-1.038-1.242-.602 0-1.079.524-1.148 1.242h2.186z" fill="#fff"/><g transform="matrix(.799 0 0 -.799 -5.005 67.288)"><path fill="#010101" d="M175.259-133.889c0-4.441-3.272-7.204-7.722-7.204h-153.209c-4.452 0-8.063 3.603-8.063 8.046v33.983c0 4.441 3.611 8.043 8.063 8.043h153.209c4.45 0 7.722-3.602 7.722-8.043v-34.825z"/><path fill="#fff" d="M112.081-121.157c.443.16.671.298.671.616 0 .916-1.048 1.976-2.3 1.976-.927 0-2.667-.714-2.667-3.195 0-.386.047-.798.07-1.212l4.226 1.815zm3.291-5.804l-1.111-1.035c-.256-.141-.511-.303-.765-.417-.771-.347-1.556-.434-2.254-.434-.74 0-1.901.047-3.089.895-1.647 1.148-2.366 3.12-2.366 4.839 0 3.56 2.928 5.304 5.316 5.304.837 0 1.695-.205 2.392-.642 1.159-.759 1.46-1.744 1.627-2.272l-5.458-2.18-1.786-.137c.578-2.919 2.573-4.616 4.781-4.616 1.1 0 1.919.356 2.669.721.001.001.151.08.044-.026"/><path fill="#fff" d="M103.962-126.784c0-.892.163-1.031.924-1.102l1.186-.111-.859-.505h-4.09c.537.687.628.755.628 1.215v.513l-.01 13.647h-1.806l1.74.828h3.32c-.719-.412-.934-.663-1.026-1.465l-.007-13.02z"/><path fill="#fff" d="M96.642-124.762c.537.529.582 1.262.582 1.678 0 1.65-.996 4.221-2.924 4.221-.601 0-1.255-.299-1.625-.762-.392-.477-.51-1.1-.51-1.694 0-1.537.908-4.087 2.9-4.087.582 0 1.209.28 1.577.644m-.668-4.363c-.191.024-.305.024-.535.024-.21 0-1.463-.044-2.435-.367-.514-.185-1.999-.733-1.999-2.365 0-1.628 1.604-2.8 4.085-2.8 2.228 0 3.412 1.056 3.412 2.479 0 1.169-.767 1.788-2.528 3.029m1.645 10.189c.532-.432 1.645-1.351 1.645-3.095 0-1.701-.969-2.502-1.947-3.262-.3-.298-.651-.622-.651-1.123 0-.508.351-.784.604-.987l.837-.641c1.02-.853 1.949-1.631 1.949-3.217 0-2.159-2.114-4.336-6.106-4.336-3.364 0-4.989 1.584-4.989 3.282 0 .827.416 1.997 1.788 2.799 1.437.872 3.39.986 4.434 1.053-.327.418-.7.854-.7 1.565 0 .389.119.62.233.895-.254-.024-.51-.049-.742-.049-2.462 0-3.853 1.817-3.853 3.607 0 1.055.485 2.227 1.485 3.076 1.324 1.077 2.901 1.263 4.156 1.263h4.782l-1.487-.831h-1.438z"/><path fill="#fff" d="M86.131-126.943c.561.734.699 1.651.699 2.545 0 2.023-.975 5.878-3.854 5.878-.765 0-1.535-.295-2.092-.78-.906-.803-1.068-1.812-1.068-2.804 0-2.266 1.133-6.007 3.947-6.007.906 0 1.833.436 2.368 1.168m-2.904-1.857c-3.688 0-5.662 2.842-5.662 5.413 0 3.005 2.482 5.579 6.011 5.579 3.412 0 5.55-2.642 5.55-5.414 0-2.711-2.113-5.578-5.899-5.578"/><path fill="#fff" d="M73.779-126.943c.557.734.697 1.651.697 2.545 0 2.023-.977 5.878-3.853 5.878-.768 0-1.531-.295-2.089-.78-.908-.803-1.069-1.812-1.069-2.804 0-2.266 1.138-6.007 3.946-6.007.908 0 1.832.436 2.368 1.168m-2.903-1.857c-3.691 0-5.662 2.842-5.662 5.413 0 3.005 2.483 5.579 6.013 5.579 3.408 0 5.543-2.642 5.543-5.414 0-2.711-2.109-5.578-5.894-5.578"/><path fill="#fff" d="M63.74-128.002l-3.111-.704c-1.262-.198-2.394-.37-3.593-.37-6.002 0-8.29 4.368-8.29 7.787 0 4.177 3.241 8.049 8.791 8.049 1.173 0 2.304-.171 3.332-.448 1.631-.454 2.394-1.011 2.87-1.34l-1.808-1.696-.762-.169.544.858c-.738.71-2.089 2.021-4.658 2.021-3.431 0-6.022-2.581-6.022-6.348 0-4.047 2.958-7.852 7.7-7.852 1.394 0 2.111.276 2.762.535v3.468l-3.286-.174 1.742.926h4.611l-.563-.537c-.153-.129-.172-.171-.216-.342-.023-.197-.043-.819-.043-1.04v-2.624z"/><path fill="#fff" d="M129.457-123.401c0 2.605-1.372 4.592-3.808 4.592-1.513 0-2.96-1.174-3.587-2.199v-4.763c.628-1.027 2.075-2.246 3.587-2.246 2.436 0 3.808 2.004 3.808 4.616m-7.395-3.66v-5.846h-1.174v14.877h1.174v-1.694c.764 1.095 2.162 1.964 3.785 1.964 2.912 0 4.874-2.185 4.874-5.642 0-3.435-1.962-5.664-4.874-5.664-1.533 0-2.903.781-3.785 2.005"/><path fill="#fff" d="M132.324-113.92h1.172v-14.879h-1.172v14.879z"/><path fill="#fff" d="M146.671-131.944c.251-.11.679-.18.952-.18.717 0 1.218.292 1.666 1.318l.856 1.918-4.626 10.859h1.31l3.967-9.411 3.93 9.411h1.328l-5.64-13.137c-.585-1.354-1.506-2.005-2.771-2.005-.381 0-.881.068-1.174.156l.202 1.071z"/><path fill="#fff" d="M139.075-127.919c.999 0 1.716.22 2.449.656.727.434 1.221.999 1.482 1.683v2.07h-2.751c-1.051 0-1.921-.23-2.606-.695-.686-.463-1.033-1.023-1.033-1.673 0-.614.218-1.105.657-1.479.439-.377 1.039-.562 1.802-.562m4.169-.846c-.079.373-.139.703-.183.976-.034.275-.055.556-.055.842-.403-.586-.973-1.072-1.702-1.455-.727-.385-1.421-.574-2.372-.574-1.143 0-2.031.277-2.665.844-.633.564-.951 1.326-.951 2.294 0 .966.462 1.748 1.379 2.347.917.603 2.106.902 3.571.902h2.74v1.339c0 .771-.266 1.376-.796 1.816-.535.44-1.279.663-2.249.663-.886 0-1.604-.205-2.151-.601-.541-.402-.814-.903-.814-1.507h-1.204l-.024.058c-.043.813.334 1.527 1.134 2.143.795.616 1.84.925 3.126.925 1.278 0 2.314-.306 3.095-.913.78-.601 1.172-1.471 1.172-2.609v-5.315c0-.38.017-.749.066-1.108.049-.359.128-.719.233-1.066h-1.35z"/><path fill="#fff" d="M48.796-101.715c0 2.284 1.718 3.755 3.855 3.755 1.43 0 2.367-.674 2.949-1.502l-1.044-.598c-.397.543-1.09.968-1.905.968-1.455 0-2.533-1.09-2.533-2.623 0-1.515 1.078-2.625 2.533-2.625.748 0 1.408.337 1.74.654v1.122h-2.202v1.12h3.478v-2.711c-.715-.795-1.75-1.329-3.015-1.329-2.138 0-3.856 1.491-3.856 3.769"/><path fill="#fff" d="M57.259-105.342v7.263h5.031v-1.123h-3.741v-1.872h3.666v-1.123h-3.666v-2.026h3.741v-1.12h-5.031z"/><path fill="#fff" d="M65.855-105.342v6.14h-2.222v1.123h5.734v-1.123h-2.223v-6.14h-1.289z"/><path fill="#fff" d="M73.844-98.078h1.289v-7.263h-1.289v7.263z"/><path fill="#fff" d="M78.722-105.342v6.14h-2.225v1.123h5.734v-1.123h-2.221v-6.14h-1.288z"/><path fill="#fff" d="M92.577-101.715c0 1.502-.958 2.623-2.433 2.623-1.485 0-2.435-1.12-2.435-2.623 0-1.493.949-2.625 2.435-2.625 1.474 0 2.433 1.131 2.433 2.625m-6.187 0c0 2.167 1.553 3.755 3.754 3.755 2.191 0 3.755-1.588 3.755-3.755 0-2.168-1.565-3.757-3.755-3.757-2.201-.001-3.754 1.589-3.754 3.757"/><path fill="#fff" d="M100.522-105.342l-3.831 5.194v-5.194h-1.288v7.263h1.322l3.753-5.032v5.032h1.289v-7.263h-1.245z"/><linearGradient id="b" gradientUnits="userSpaceOnUse" x1="-213.525" y1="-758.748" x2="-212.843" y2="-758.748" gradientTransform="matrix(-4.877 21.193 21.193 4.877 15069.41 8103.798)"><stop offset="0" stop-color="#D7E69D"/><stop offset="1" stop-color="#01A4B6"/></linearGradient><path fill="url(#b)" d="M21.394-110.906l12.022-11.89 3.766 3.725-14.677 7.981c-.285.155-.556.228-.796.228-.112 0-.217-.015-.315-.044"/><linearGradient id="c" gradientUnits="userSpaceOnUse" x1="-206.22" y1="-766.083" x2="-205.538" y2="-766.083" gradientTransform="matrix(12.482 -21.317 -21.317 -12.482 -13726.497 -14067.628)"><stop offset="0" stop-color="#ED277B"/><stop offset="1" stop-color="#FEEB74"/></linearGradient><path fill="url(#c)" d="M33.416-122.796l3.785-3.743 5.01 2.725c1.015.554 1.015 1.456 0 2.009l-5.028 2.734-3.767-3.725z"/><linearGradient id="d" gradientUnits="userSpaceOnUse" x1="-212.631" y1="-759.953" x2="-211.951" y2="-759.953" gradientTransform="matrix(-7.544 29.109 29.109 7.544 20544.578 11794.212)"><stop offset="0" stop-color="#89CFBD"/><stop offset="1" stop-color="#084D9F"/></linearGradient><path fill="url(#d)" d="M20.659-112.169l.002-21.281c0-.669.279-1.109.713-1.255l12.041 11.909-12.022 11.89c-.446-.139-.734-.586-.734-1.263"/><linearGradient id="e" gradientUnits="userSpaceOnUse" x1="-214.083" y1="-765.405" x2="-213.395" y2="-765.405" gradientTransform="matrix(-26.151 -3.582 -3.582 26.151 -8299.952 19121.809)"><stop offset="0" stop-color="#F04A2B"/><stop offset="1" stop-color="#7851A1"/></linearGradient><path fill="url(#e)" d="M21.374-134.705c.313-.106.704-.055 1.13.175l14.695 7.991-3.784 3.743-12.041-11.909z"/></g></svg>