<svg xmlns="http://www.w3.org/2000/svg" width="159" height="160"><path fill="#00AAA0" d="M82.074 71.447s-.006-38.164 0-40.808c.005-2.646 3.306-9.803 13.402-10.332h27.738s3.14.579 3.14 2.9v38.785s-.904 2.132-3.141 2.132h-29.246c0 .001-7.774.304-11.893 7.323"/><path fill="#00AAA0" d="M74.867 51.043s-.093-38.201 0-40.808c.093-2.607-1.123-9.092-12.135-10.235h-27.742s-1.682.483-2.342 2.805v38.784s.109 2.231 2.344 2.231h29.248c-.001-.001 6.51.204 10.627 7.223"/><path fill="#fff" d="M14.251 96c-6.41 0-10.888-5.075-10.888-12.342 0-7.266 4.478-12.34 10.888-12.34 5.412.036 9.205 3.209 9.662 8.084l.012.141h-4.175l-.025-.098c-.742-3.012-2.583-4.538-5.473-4.538-4.944 0-6.697 4.713-6.697 8.751s1.753 8.752 6.697 8.752c3.717 0 5.327-3.092 5.596-5.988l.011-.118h4.093l-.008.136c-.32 5.719-4.216 9.56-9.693 9.56z"/><path stroke="#fff" stroke-width=".518" stroke-miterlimit="10" d="M14.251 96c-6.41 0-10.888-5.075-10.888-12.342 0-7.266 4.478-12.34 10.888-12.34 5.412.036 9.205 3.209 9.662 8.084l.012.141h-4.175l-.025-.098c-.742-3.012-2.583-4.538-5.473-4.538-4.944 0-6.697 4.713-6.697 8.751s1.753 8.752 6.697 8.752c3.717 0 5.327-3.092 5.596-5.988l.011-.118h4.093l-.008.136c-.32 5.719-4.216 9.56-9.693 9.56z" fill="none"/><path fill="#fff" d="M37.46 95.444v-10.74c-.062-2.528-1.002-3.659-3.05-3.659-2.236 0-3.8 1.773-3.8 4.312v10.087h-3.847v-23.572h3.847v8.439c.954-1.483 2.828-2.465 4.809-2.465 3.741 0 5.886 2.144 5.886 5.879v11.719h-3.845z"/><path stroke="#fff" stroke-width=".518" stroke-miterlimit="10" d="M37.46 95.444v-10.74c-.062-2.528-1.002-3.659-3.05-3.659-2.236 0-3.8 1.773-3.8 4.312v10.087h-3.847v-23.572h3.847v8.439c.954-1.483 2.828-2.465 4.809-2.465 3.741 0 5.886 2.144 5.886 5.879v11.719h-3.845z" fill="none"/><path fill="#fff" d="M56.777 95.901c-1.59 0-2.523-.631-2.848-1.931-1.525 1.42-3.846 1.931-5.552 1.931-2.836 0-5.698-1.564-5.698-5.06 0-4.266 3.291-5.017 6.375-5.384.539-.104 1.075-.172 1.579-.237 1.847-.237 3.183-.409 3.183-2.02 0-1.783-1.759-2.157-3.235-2.157-2.086 0-3.314.911-3.46 2.561l-.009.117h-3.842l.008-.136c.288-4.994 4.838-5.74 7.524-5.74 3.064 0 6.641 1.316 6.641 5.027v8.687c0 .979.222 1.144.719 1.144.22 0 .491 0 .858-.062l.152-.027v2.823l-.083.032c-.536.195-1.687.432-2.312.432zm-3.182-8.809c-.787.45-1.809.576-2.886.709-.456.055-.916.114-1.364.196-1.396.236-2.82.741-2.82 2.684 0 1.601 2.077 2.023 3.173 2.023 1.567 0 3.897-.817 3.897-3.07v-2.542z"/><path stroke="#fff" stroke-width=".518" stroke-miterlimit="10" d="M56.777 95.901c-1.59 0-2.523-.631-2.848-1.931-1.525 1.42-3.846 1.931-5.552 1.931-2.836 0-5.698-1.564-5.698-5.06 0-4.266 3.291-5.017 6.375-5.384.539-.104 1.075-.172 1.579-.237 1.847-.237 3.183-.409 3.183-2.02 0-1.783-1.759-2.157-3.235-2.157-2.086 0-3.314.911-3.46 2.561l-.009.117h-3.842l.008-.136c.288-4.994 4.838-5.74 7.524-5.74 3.064 0 6.641 1.316 6.641 5.027v8.687c0 .979.222 1.144.719 1.144.22 0 .491 0 .858-.062l.152-.027v2.823l-.083.032c-.536.195-1.687.432-2.312.432zm-3.182-8.809c-.787.45-1.809.576-2.886.709-.456.055-.916.114-1.364.196-1.396.236-2.82.741-2.82 2.684 0 1.601 2.077 2.023 3.173 2.023 1.567 0 3.897-.817 3.897-3.07v-2.542z" fill="none"/><path fill="#fff" d="M66.116 95.609c-3.805 0-4.563-1.559-4.628-4.436v-9.833h-2.703v-3.034h2.703v-5.061h3.846v5.061h3.242v3.034h-3.242v8.883c0 1.554.146 2.187 1.602 2.187.509 0 .991 0 1.48-.127l.16-.042v3.161l-.118.01c-.269.021-.532.052-.795.083-.502.056-1.02.114-1.547.114z"/><path stroke="#fff" stroke-width=".518" stroke-miterlimit="10" d="M66.116 95.609c-3.805 0-4.563-1.559-4.628-4.436v-9.833h-2.703v-3.034h2.703v-5.061h3.846v5.061h3.242v3.034h-3.242v8.883c0 1.554.146 2.187 1.602 2.187.509 0 .991 0 1.48-.127l.16-.042v3.161l-.118.01c-.269.021-.532.052-.795.083-.502.056-1.02.114-1.547.114z" fill="none"/><path fill="#fff" d="M71.118 72.005h3.585v8.617h.063c.975-1.631 3.02-2.645 4.844-2.645 5.126 0 7.614 4.048 7.614 8.979 0 4.539-2.204 8.816-7.018 8.816-2.201 0-4.56-.555-5.631-2.774h-.062v2.318h-3.396v-23.311zm8.022 8.912c-3.021 0-4.563 2.382-4.563 5.973 0 3.397 1.67 5.943 4.563 5.943 3.271 0 4.498-3.004 4.498-5.943-.001-3.067-1.542-5.973-4.498-5.973"/><path stroke="#fff" stroke-width=".518" stroke-miterlimit="10" d="M71.118 72.005h3.585v8.617h.063c.975-1.631 3.02-2.645 4.844-2.645 5.126 0 7.614 4.048 7.614 8.979 0 4.539-2.204 8.816-7.018 8.816-2.201 0-4.56-.555-5.631-2.774h-.062v2.318h-3.396v-23.311zm8.022 8.912c-3.021 0-4.563 2.382-4.563 5.973 0 3.397 1.67 5.943 4.563 5.943 3.271 0 4.498-3.004 4.498-5.943-.001-3.067-1.542-5.973-4.498-5.973" fill="none"/><path fill="#fff" d="M88.856 86.857c0-5.158 2.99-8.88 8.213-8.88 5.221 0 8.209 3.722 8.209 8.88 0 5.193-2.989 8.915-8.209 8.915-5.223 0-8.213-3.721-8.213-8.915m12.837 0c0-2.905-1.417-5.94-4.625-5.94-3.21 0-4.625 3.036-4.625 5.94 0 2.94 1.415 5.976 4.625 5.976 3.209 0 4.625-3.036 4.625-5.976"/><path stroke="#fff" stroke-width=".518" stroke-miterlimit="10" d="M88.856 86.857c0-5.158 2.99-8.88 8.213-8.88 5.221 0 8.209 3.722 8.209 8.88 0 5.193-2.989 8.915-8.209 8.915-5.223 0-8.213-3.721-8.213-8.915m12.837 0c0-2.905-1.417-5.94-4.625-5.94-3.21 0-4.625 3.036-4.625 5.94 0 2.94 1.415 5.976 4.625 5.976 3.209 0 4.625-3.036 4.625-5.976" fill="none"/><path fill="#fff" d="M106.881 86.857c0-5.158 2.99-8.88 8.208-8.88 5.223 0 8.212 3.722 8.212 8.88 0 5.193-2.989 8.915-8.212 8.915-5.218 0-8.208-3.721-8.208-8.915m12.834 0c0-2.905-1.418-5.94-4.626-5.94s-4.623 3.036-4.623 5.94c0 2.94 1.416 5.976 4.623 5.976 3.208 0 4.626-3.036 4.626-5.976"/><path stroke="#fff" stroke-width=".518" stroke-miterlimit="10" d="M106.881 86.857c0-5.158 2.99-8.88 8.208-8.88 5.223 0 8.212 3.722 8.212 8.88 0 5.193-2.989 8.915-8.212 8.915-5.218 0-8.208-3.721-8.208-8.915m12.834 0c0-2.905-1.418-5.94-4.626-5.94s-4.623 3.036-4.623 5.94c0 2.94 1.416 5.976 4.623 5.976 3.208 0 4.626-3.036 4.626-5.976" fill="none"/><polygon fill="#fff" points="136.376,95.444 131.453,87.328 129.43,89.368 129.468,95.444 125.623,95.444 125.623,71.872 129.468,71.872 129.468,84.936 135.725,78.345 140.538,78.306 134.158,84.656 141.059,95.444"/><polygon stroke="#fff" stroke-width=".518" stroke-miterlimit="10" points="136.376,95.444 131.453,87.328 129.43,89.368 129.468,95.444 125.623,95.444 125.623,71.872 129.468,71.872 129.468,84.936 135.725,78.345 140.538,78.306 134.158,84.656 141.059,95.444" fill="none"/><path fill="#fff" d="M148.244 95.901c-4.535 0-7.276-2.246-7.335-6.004l-.002-.13h3.835l.01.117c.206 2.331 2.044 2.82 3.553 2.82.831 0 2.339-.114 3.07-.882.301-.316.441-.719.419-1.201-.077-1.575-1.929-1.972-4.075-2.435-.375-.082-.759-.165-1.144-.256-2.763-.613-5.323-1.659-5.323-5.12 0-3.661 3.731-4.964 6.925-4.964 4.004 0 6.528 1.935 6.924 5.308l.018.144h-3.996l-.02-.107c-.259-1.442-1.3-2.146-3.178-2.146-.663 0-2.827.114-2.827 1.6 0 1.464 1.875 1.866 4.049 2.334l1.135.253c2.781.659 5.353 1.727 5.353 5.055.002 4.144-3.981 5.614-7.391 5.614z"/><path stroke="#fff" stroke-width=".518" stroke-miterlimit="10" d="M148.244 95.901c-4.535 0-7.276-2.246-7.335-6.004l-.002-.13h3.835l.01.117c.206 2.331 2.044 2.82 3.553 2.82.831 0 2.339-.114 3.07-.882.301-.316.441-.719.419-1.201-.077-1.575-1.929-1.972-4.075-2.435-.375-.082-.759-.165-1.144-.256-2.763-.613-5.323-1.659-5.323-5.12 0-3.661 3.731-4.964 6.925-4.964 4.004 0 6.528 1.935 6.924 5.308l.018.144h-3.996l-.02-.107c-.259-1.442-1.3-2.146-3.178-2.146-.663 0-2.827.114-2.827 1.6 0 1.464 1.875 1.866 4.049 2.334l1.135.253c2.781.659 5.353 1.727 5.353 5.055.002 4.144-3.981 5.614-7.391 5.614z" fill="none"/><g fill="#86C440"><path d="M141.287 145.949c0 1.074-.873 1.945-1.95 1.945h-28.674c-1.077 0-1.951-.871-1.951-1.945v-25.503c0-1.074.874-1.944 1.951-1.944h28.674c1.077 0 1.95.87 1.95 1.944v25.503z"/><rect x="108.682" y="118.502" width="32.637" height="13.396"/><path d="M150 136.409c0 1.911-1.553 3.461-3.471 3.461-1.916 0-3.471-1.55-3.471-3.461v-15.553c0-1.912 1.555-3.461 3.471-3.461 1.918 0 3.471 1.549 3.471 3.461v15.553zm-43.058 0c0 1.911-1.554 3.461-3.471 3.461s-3.471-1.55-3.471-3.461v-15.553c0-1.912 1.554-3.461 3.471-3.461s3.471 1.549 3.471 3.461v15.553zm18.058-33.549c-15.823-.048-16.183 13.726-16.183 13.726h32.366s-.51-13.677-16.183-13.726zm-7.103 8.637c-1.076 0-1.948-.87-1.948-1.943 0-1.072.873-1.942 1.948-1.942s1.948.87 1.948 1.942c0 1.073-.872 1.943-1.948 1.943zm14.206 0c-1.076 0-1.948-.87-1.948-1.943 0-1.072.872-1.942 1.948-1.942 1.075 0 1.948.87 1.948 1.942 0 1.073-.873 1.943-1.948 1.943zm-14.742-6.785c.057.081.234.055.396-.059.159-.112.243-.271.186-.351l-3.023-4.255c-.058-.082-.235-.055-.394.058-.161.114-.244.271-.187.353l3.022 4.254zm15.278 0c-.058.081-.233.055-.396-.059-.159-.112-.243-.271-.186-.351l3.023-4.255c.058-.082.236-.055.395.058.161.114.245.271.186.353l-3.022 4.254zm2.53 51.827c0 1.912-1.554 3.461-3.471 3.461s-3.471-1.549-3.471-3.461v-15.554c0-1.911 1.554-3.461 3.471-3.461s3.471 1.55 3.471 3.461v15.554zm-13.397 0c0 1.912-1.554 3.461-3.471 3.461s-3.471-1.549-3.471-3.461v-15.554c0-1.911 1.554-3.461 3.471-3.461s3.471 1.55 3.471 3.461v15.554z"/></g><path fill="#fff" d="M93.875 124.694c0 1.481-1.201 2.682-2.686 2.682h-87.877c-1.484 0-2.689-1.201-2.689-2.682v-21.386c0-1.481 1.205-2.686 2.689-2.686h87.876c1.485 0 2.686 1.205 2.686 2.686l.001 21.386z"/><path fill="#A7A6A6" d="M91.188 128h-87.876c-1.826 0-3.312-1.483-3.312-3.306v-21.385c0-1.825 1.486-3.309 3.312-3.309h87.876c1.824 0 3.312 1.484 3.312 3.309v21.385c.001 1.823-1.487 3.306-3.312 3.306z"/><path fill="#010101" d="M93.875 124.694c0 1.481-1.201 2.682-2.686 2.682h-87.877c-1.484 0-2.689-1.201-2.689-2.682v-21.386c0-1.481 1.205-2.686 2.689-2.686h87.876c1.485 0 2.686 1.205 2.686 2.686l.001 21.386z"/><path fill="#fff" d="M21.102 113.853c-.021-2.257 1.849-3.355 1.934-3.406-1.059-1.542-2.699-1.753-3.276-1.77-1.377-.145-2.713.824-3.416.824-.716 0-1.796-.81-2.962-.786-1.499.023-2.9.89-3.669 2.237-1.587 2.747-.404 6.784 1.117 9.004.76 1.088 1.649 2.302 2.812 2.259 1.139-.046 1.563-.726 2.938-.726 1.36 0 1.76.726 2.946.698 1.221-.018 1.991-1.091 2.725-2.189.879-1.246 1.232-2.475 1.246-2.537-.029-.009-2.372-.904-2.395-3.608z"/><path fill="#fff" d="M18.86 107.216c.611-.766 1.031-1.807.914-2.863-.885.039-1.993.612-2.632 1.361-.563.66-1.068 1.741-.938 2.757.995.075 2.018-.502 2.656-1.255z"/><linearGradient id="a" gradientUnits="userSpaceOnUse" x1="-14.69" y1="673.075" x2="-14.69" y2="647.837" gradientTransform="translate(84 -545)"><stop offset="0" stop-color="#1A1A1A" stop-opacity=".1"/><stop offset=".123" stop-color="#212121" stop-opacity=".151"/><stop offset=".308" stop-color="#353635" stop-opacity=".227"/><stop offset=".532" stop-color="#575858" stop-opacity=".318"/><stop offset=".783" stop-color="#858585" stop-opacity=".421"/><stop offset="1" stop-color="#B4B4B4" stop-opacity=".51"/></linearGradient><path fill="url(#a)" d="M91.188 100h-47.068l18.437 28h28.632c1.824 0 3.312-1.483 3.312-3.307v-21.384c0-1.825-1.488-3.309-3.313-3.309z"/><path d="M37.586 122.059h-1.591l-.871-2.737h-3.028l-.83 2.737h-1.549l3.002-9.318h1.853l3.014 9.318zm-2.724-3.886l-.789-2.432c-.083-.25-.24-.834-.469-1.756h-.028c-.092.396-.241.981-.443 1.756l-.774 2.432h2.503zm10.427.444c0 1.143-.31 2.046-.931 2.709-.556.59-1.248.885-2.072.885-.89 0-1.53-.317-1.919-.953v3.525h-1.493v-7.234c0-.718-.018-1.453-.054-2.208h1.312l.083 1.065h.028c.498-.802 1.254-1.204 2.269-1.204.792 0 1.454.313 1.983.939.529.628.794 1.453.794 2.476zm-1.521.054c0-.653-.147-1.192-.443-1.617-.323-.442-.757-.664-1.3-.664-.368 0-.703.123-1.002.367-.3.244-.496.565-.588.961-.045.186-.069.336-.069.454v1.122c0 .487.15.899.45 1.237.301.336.69.504 1.169.504.563 0 1-.217 1.313-.649.313-.433.47-1.005.47-1.715zm9.251-.054c0 1.143-.31 2.046-.932 2.709-.556.59-1.247.885-2.071.885-.89 0-1.53-.317-1.919-.953v3.525h-1.494v-7.234c0-.718-.018-1.453-.056-2.208h1.313l.083 1.065h.028c.497-.802 1.253-1.204 2.268-1.204.792 0 1.455.313 1.985.939.529.628.795 1.453.795 2.476zm-1.521.054c0-.653-.148-1.192-.443-1.617-.324-.442-.755-.664-1.299-.664-.369 0-.704.123-1.004.367-.299.244-.495.565-.586.961-.046.186-.07.336-.07.454v1.122c0 .487.15.899.449 1.237.299.336.688.504 1.17.504.563 0 1.001-.217 1.313-.649.312-.433.47-1.005.47-1.715zm10.164.775c0 .793-.277 1.438-.828 1.936-.607.543-1.454.815-2.54.815-1.003 0-1.807-.193-2.413-.581l.346-1.244c.654.388 1.374.581 2.157.581.563 0 1-.126 1.313-.38.313-.253.471-.591.471-1.015 0-.379-.13-.697-.388-.955-.258-.257-.686-.498-1.286-.718-1.632-.609-2.449-1.499-2.449-2.669 0-.764.289-1.39.864-1.879.576-.489 1.339-.733 2.288-.733.849 0 1.556.147 2.116.442l-.375 1.217c-.528-.286-1.124-.43-1.791-.43-.527 0-.94.13-1.236.388-.248.23-.374.511-.374.844 0 .368.144.673.429.912.248.221.7.461 1.355.719.802.323 1.392.701 1.77 1.133.382.432.571.973.571 1.617zm4.949-2.986h-1.646v3.262c0 .83.29 1.244.872 1.244.266 0 .487-.022.663-.069l.041 1.134c-.294.109-.681.166-1.161.166-.59 0-1.05-.181-1.384-.541-.331-.36-.497-.963-.497-1.812v-3.387h-.981v-1.12h.982v-1.23l1.466-.441v1.672h1.646v1.122h-.001zm7.412 2.184c0 1.033-.295 1.881-.885 2.544-.618.682-1.438 1.023-2.461 1.023-.987 0-1.772-.327-2.358-.98-.586-.655-.878-1.479-.878-2.474 0-1.042.302-1.893.905-2.557.604-.663 1.418-.996 2.441-.996.987 0 1.779.328 2.378.982.573.634.858 1.453.858 2.458zm-1.548.034c0-.615-.133-1.144-.399-1.585-.313-.533-.763-.8-1.342-.8-.598 0-1.058.267-1.369.8-.268.441-.401.979-.401 1.613 0 .616.133 1.145.401 1.585.322.535.772.801 1.357.801.57 0 1.018-.273 1.342-.813.273-.452.411-.984.411-1.601zm6.403-2.025c-.147-.027-.305-.041-.47-.041-.526 0-.932.197-1.217.594-.249.351-.374.793-.374 1.327v3.526h-1.493v-4.604c0-.773-.014-1.48-.043-2.115h1.3l.055 1.286h.042c.159-.442.406-.798.747-1.064.333-.242.692-.361 1.08-.361l.373.027v1.425zm6.679 1.729c0 .267-.018.493-.055.677h-4.48c.017.664.234 1.171.65 1.522.377.312.866.469 1.465.469.664 0 1.269-.104 1.812-.316l.234 1.035c-.635.277-1.387.415-2.252.415-1.043 0-1.86-.306-2.456-.917-.593-.613-.891-1.437-.891-2.468 0-1.012.275-1.855.83-2.529.58-.718 1.363-1.077 2.35-1.077.969 0 1.703.359 2.2 1.077.394.567.593 1.273.593 2.112zm-1.424-.388c.009-.443-.088-.825-.29-1.146-.259-.417-.656-.625-1.189-.625-.488 0-.886.203-1.189.609-.248.322-.396.711-.442 1.161l3.11.001z" fill="#fff"/><path d="M31.666 109.446c-.416 0-.775-.02-1.074-.055v-4.505c.388-.061.808-.095 1.265-.095 1.712 0 2.501.842 2.501 2.215-.001 1.585-.933 2.44-2.692 2.44zm.25-4.077c-.231 0-.427.014-.591.048v3.424c.089.014.258.021.497.021 1.122 0 1.76-.638 1.76-1.834-.001-1.067-.578-1.659-1.666-1.659zm4.898 4.112c-.965 0-1.591-.722-1.591-1.699 0-1.02.639-1.746 1.646-1.746.951 0 1.591.685 1.591 1.692 0 1.031-.659 1.753-1.646 1.753zm.028-2.909c-.53 0-.87.496-.87 1.189 0 .681.346 1.175.863 1.175s.862-.53.862-1.189c.001-.672-.339-1.175-.855-1.175zm7.12-.468l-1.032 3.302h-.673l-.428-1.434c-.108-.36-.196-.713-.265-1.066h-.014c-.054.36-.157.72-.266 1.066l-.455 1.434h-.679l-.973-3.302h.755l.374 1.57c.088.373.163.727.224 1.06h.014c.054-.277.143-.625.271-1.053l.469-1.576h.598l.45 1.542c.109.373.197.741.265 1.087h.021c.046-.339.122-.7.223-1.087l.402-1.542.719-.001zm3.804 3.302h-.734v-1.896c0-.584-.225-.877-.666-.877-.436 0-.735.374-.735.809v1.964h-.733v-2.358c0-.292-.007-.605-.027-.945h.646l.034.509h.021c.197-.353.598-.576 1.047-.576.693 0 1.149.53 1.149 1.393l-.002 1.977zm2.024 0h-.734v-4.818h.734v4.818zm2.677.075c-.964 0-1.59-.722-1.59-1.699 0-1.02.638-1.746 1.645-1.746.951 0 1.589.685 1.589 1.692 0 1.031-.659 1.753-1.644 1.753zm.027-2.909c-.53 0-.871.496-.871 1.189 0 .681.348 1.175.863 1.175.516 0 .863-.53.863-1.189.001-.672-.339-1.175-.855-1.175zm4.511 2.834l-.053-.38h-.02c-.225.306-.552.456-.965.456-.592 0-1.012-.415-1.012-.972 0-.816.707-1.237 1.929-1.237v-.061c0-.436-.229-.653-.685-.653-.326 0-.612.082-.863.245l-.149-.481c.305-.19.686-.286 1.134-.286.863 0 1.298.455 1.298 1.366v1.217c0 .333.015.59.047.788l-.661-.002zm-.101-1.645c-.815 0-1.224.198-1.224.667 0 .346.21.516.503.516.373 0 .721-.285.721-.672v-.511zm4.28 1.645l-.034-.53h-.021c-.21.401-.565.605-1.06.605-.797 0-1.387-.7-1.387-1.686 0-1.033.611-1.76 1.446-1.76.442 0 .755.149.932.448h.015v-1.896h.734v3.928c0 .319.008.618.028.89h-.653zm-.109-1.944c0-.462-.307-.856-.773-.856-.545 0-.877.482-.877 1.162 0 .666.345 1.122.863 1.122.461 0 .788-.401.788-.877v-.551h-.001zm5.394 2.019c-.965 0-1.591-.722-1.591-1.699 0-1.02.639-1.746 1.645-1.746.951 0 1.59.685 1.59 1.692 0 1.031-.658 1.753-1.644 1.753zm.027-2.909c-.53 0-.87.496-.87 1.189 0 .681.347 1.175.862 1.175.517 0 .863-.53.863-1.189.002-.672-.338-1.175-.855-1.175zm5.565 2.834h-.735v-1.896c0-.584-.224-.877-.667-.877-.435 0-.733.374-.733.809v1.964h-.734v-2.358c0-.292-.007-.605-.027-.945h.645l.035.509h.02c.198-.353.599-.576 1.047-.576.693 0 1.149.53 1.149 1.392v1.978zm4.938-2.752h-.808v1.604c0 .408.141.612.427.612.13 0 .238-.014.326-.034l.02.557c-.142.055-.332.082-.568.082-.579 0-.925-.319-.925-1.155v-1.666h-.48v-.55h.48v-.605l.721-.218v.822h.808v.551h-.001zm3.886 2.752h-.733v-1.881c0-.592-.224-.891-.666-.891-.38 0-.735.258-.735.782v1.99h-.733v-4.818h.733v1.984h.014c.231-.359.566-.536.993-.536.699 0 1.127.543 1.127 1.406v1.964zm3.98-1.475h-2.203c.014.625.429.978 1.042.978.326 0 .625-.055.89-.156l.114.51c-.312.136-.679.205-1.108.205-1.033 0-1.644-.653-1.644-1.665s.625-1.773 1.561-1.773c.844 0 1.374.625 1.374 1.569.001.129-.004.243-.026.332zm-.672-.523c0-.51-.258-.87-.727-.87-.421 0-.755.367-.804.87h1.531z" fill="#fff"/><g transform="matrix(.799 0 0 -.799 -5.005 67.288)"><path fill="#010101" d="M124.561-108.51c0-3.108-2.29-5.043-5.405-5.043h-107.246c-3.117 0-5.644 2.522-5.644 5.632v23.788c0 3.109 2.527 5.63 5.644 5.63h107.246c3.115 0 5.405-2.521 5.405-5.63v-24.377z"/><path fill="#fff" d="M80.337-99.598c.311.112.47.208.47.432 0 .641-.733 1.383-1.61 1.383-.649 0-1.867-.5-1.867-2.236 0-.27.033-.559.049-.848l2.958 1.269zm2.303-4.063l-.777-.724c-.179-.098-.358-.212-.535-.292-.54-.243-1.089-.304-1.578-.304-.518 0-1.331.033-2.162.627-1.153.804-1.656 2.185-1.656 3.387 0 2.492 2.049 3.713 3.721 3.713.586 0 1.186-.144 1.675-.449.811-.531 1.022-1.221 1.139-1.59l-3.821-1.526-1.25-.096c.405-2.043 1.801-3.231 3.346-3.231.77 0 1.343.249 1.869.505l.029-.02"/><path fill="#fff" d="M74.654-103.537c0-.625.114-.722.647-.771l.83-.078-.601-.354h-2.863c.376.481.439.529.439.85v.359l-.007 9.553h-1.264l1.218.579h2.324c-.504-.288-.654-.464-.718-1.025l-.005-9.113z"/><path fill="#fff" d="M69.529-102.122c.376.37.408.883.408 1.175 0 1.155-.697 2.955-2.047 2.955-.421 0-.879-.21-1.138-.533-.274-.334-.357-.77-.357-1.186 0-1.076.635-2.861 2.03-2.861.408 0 .847.196 1.104.45m-.467-3.054l-.374.017c-.147 0-1.024-.031-1.705-.257-.36-.13-1.4-.513-1.4-1.655 0-1.139 1.123-1.96 2.859-1.96 1.56 0 2.389.739 2.389 1.735 0 .819-.537 1.251-1.769 2.12m1.151 7.133c.372-.302 1.152-.946 1.152-2.166 0-1.191-.678-1.751-1.362-2.283-.21-.208-.456-.435-.456-.786 0-.356.246-.549.423-.691l.586-.449c.714-.597 1.364-1.142 1.364-2.252 0-1.512-1.48-3.035-4.274-3.035-2.354 0-3.492 1.109-3.492 2.298 0 .579.291 1.398 1.252 1.96 1.006.61 2.373.69 3.104.737-.229.293-.49.598-.49 1.096 0 .272.084.434.164.627-.178-.017-.358-.035-.52-.035-1.724 0-2.697 1.272-2.697 2.525 0 .738.34 1.559 1.04 2.153.927.754 2.031.884 2.909.884h3.347l-1.04-.582h-1.01z"/><path fill="#fff" d="M62.172-103.648c.392.514.489 1.156.489 1.782 0 1.416-.683 4.114-2.698 4.114-.535 0-1.075-.207-1.464-.546-.634-.562-.748-1.268-.748-1.963 0-1.586.793-4.205 2.763-4.205.634 0 1.284.305 1.658.818m-2.033-1.3c-2.582 0-3.964 1.99-3.964 3.789 0 2.104 1.737 3.905 4.208 3.905 2.389 0 3.885-1.85 3.885-3.79 0-1.897-1.479-3.904-4.129-3.904"/><path fill="#fff" d="M53.525-103.648c.39.514.488 1.156.488 1.782 0 1.416-.684 4.114-2.697 4.114-.538 0-1.071-.207-1.462-.546-.636-.562-.748-1.268-.748-1.963 0-1.586.796-4.205 2.762-4.205.635 0 1.282.305 1.657.818m-2.032-1.3c-2.584 0-3.963 1.99-3.963 3.789 0 2.104 1.738 3.905 4.209 3.905 2.386 0 3.88-1.85 3.88-3.79 0-1.897-1.476-3.904-4.126-3.904"/><path fill="#fff" d="M46.498-104.39l-2.177-.493c-.883-.139-1.676-.259-2.515-.259-4.202 0-5.803 3.058-5.803 5.451 0 2.924 2.269 5.634 6.154 5.634.821 0 1.612-.12 2.332-.314 1.142-.318 1.675-.708 2.009-.938l-1.265-1.188-.534-.119.381.601c-.516.497-1.463 1.415-3.26 1.415-2.402 0-4.216-1.807-4.216-4.444 0-2.833 2.07-5.497 5.39-5.497.976 0 1.478.193 1.933.375v2.427l-2.3-.122 1.219.648h3.227l-.394-.376c-.107-.09-.12-.12-.151-.24-.016-.138-.031-.573-.031-.728v-1.833z"/><path fill="#fff" d="M92.5-101.169c0 1.823-.96 3.214-2.666 3.214-1.059 0-2.071-.822-2.511-1.54v-3.334c.439-.719 1.452-1.572 2.511-1.572 1.706.001 2.666 1.404 2.666 3.232m-5.176-2.562v-4.092h-.822v10.414h.822v-1.186c.535.766 1.513 1.375 2.649 1.375 2.038 0 3.412-1.53 3.412-3.949 0-2.405-1.373-3.965-3.412-3.965-1.073 0-2.033.546-2.649 1.403"/><path fill="#fff" d="M94.507-94.532h.821v-10.415h-.821v10.415z"/><path fill="#fff" d="M104.55-107.149c.175-.077.476-.126.667-.126.502 0 .852.204 1.166.922l.6 1.343-3.238 7.601h.917l2.777-6.588 2.751 6.588h.93l-3.949-9.196c-.41-.948-1.054-1.404-1.939-1.404-.266 0-.617.048-.821.109l.139.751z"/><path fill="#fff" d="M99.233-104.331c.699 0 1.201.154 1.714.459.509.304.855.699 1.038 1.178v1.449h-1.926c-.735 0-1.345-.161-1.825-.487-.48-.324-.723-.716-.723-1.171 0-.43.153-.773.46-1.035.308-.264.728-.393 1.262-.393m2.918-.593c-.055.261-.097.492-.128.683-.024.193-.039.389-.039.589-.282-.41-.682-.751-1.192-1.019-.509-.27-.994-.402-1.66-.402-.8 0-1.422.194-1.865.59-.443.394-.666.928-.666 1.606 0 .676.323 1.224.965 1.643.642.422 1.474.631 2.5.631h1.918v.937c0 .54-.186.963-.557 1.271-.374.308-.895.464-1.574.464-.62 0-1.123-.144-1.505-.421-.379-.281-.57-.633-.57-1.055h-.842l-.017.041c-.031.569.233 1.069.793 1.5.557.431 1.288.647 2.188.647.895 0 1.62-.214 2.167-.639.546-.421.82-1.03.82-1.826v-3.72c0-.266.012-.524.046-.776.035-.251.09-.504.163-.746h-.945z"/><path fill="#fff" d="M36.038-85.989c0 1.599 1.202 2.629 2.699 2.629 1.001 0 1.656-.472 2.064-1.052l-.731-.418c-.278.38-.763.677-1.333.677-1.018 0-1.773-.763-1.773-1.836 0-1.06.755-1.837 1.773-1.837.523 0 .985.236 1.218.458v.785h-1.542v.784h2.435v-1.898c-.501-.556-1.225-.93-2.111-.93-1.497 0-2.699 1.044-2.699 2.638"/><path fill="#fff" d="M41.961-88.527v5.084h3.522v-.786h-2.619v-1.31h2.566v-.786h-2.566v-1.418h2.619v-.784h-3.522z"/><path fill="#fff" d="M47.978-88.527v4.298h-1.556v.786h4.014v-.786h-1.556v-4.298h-.902z"/><path fill="#fff" d="M53.571-83.443h.902v-5.084h-.902v5.084z"/><path fill="#fff" d="M56.985-88.527v4.298h-1.557v.786h4.014v-.786h-1.554v-4.298h-.903z"/><path fill="#fff" d="M66.684-85.989c0 1.052-.671 1.836-1.703 1.836-1.04 0-1.704-.784-1.704-1.836 0-1.045.664-1.837 1.704-1.837 1.031 0 1.703.792 1.703 1.837m-4.331 0c0 1.517 1.087 2.629 2.628 2.629 1.534 0 2.629-1.112 2.629-2.629 0-1.518-1.095-2.63-2.629-2.63-1.541 0-2.628 1.112-2.628 2.63"/><path fill="#fff" d="M72.245-88.527l-2.681 3.636v-3.636h-.902v5.084h.925l2.627-3.522v3.522h.902v-5.084h-.871z"/><linearGradient id="b" gradientUnits="userSpaceOnUse" x1="-212.473" y1="-758.856" x2="-211.996" y2="-758.856" gradientTransform="matrix(-4.877 21.193 21.193 4.877 15069.41 8103.798)"><stop offset="0" stop-color="#D7E69D"/><stop offset="1" stop-color="#01A4B6"/></linearGradient><path fill="url(#b)" d="M16.856-92.423l8.415-8.323 2.636 2.607-10.274 5.587c-.2.109-.389.16-.557.16l-.22-.031"/><linearGradient id="c" gradientUnits="userSpaceOnUse" x1="-207" y1="-766.2" x2="-206.521" y2="-766.2" gradientTransform="matrix(12.482 -21.317 -21.317 -12.482 -13726.497 -14067.628)"><stop offset="0" stop-color="#ED277B"/><stop offset="1" stop-color="#FEEB74"/></linearGradient><path fill="url(#c)" d="M25.271-100.745l2.65-2.62 3.507 1.908c.711.388.711 1.02 0 1.406l-3.519 1.914-2.638-2.608z"/><linearGradient id="d" gradientUnits="userSpaceOnUse" x1="-211.812" y1="-759.956" x2="-211.336" y2="-759.956" gradientTransform="matrix(-7.544 29.109 29.109 7.544 20544.578 11794.212)"><stop offset="0" stop-color="#89CFBD"/><stop offset="1" stop-color="#084D9F"/></linearGradient><path fill="url(#d)" d="M16.341-93.307l.002-14.896c0-.468.196-.776.499-.879l8.429 8.336-8.415 8.323c-.313-.097-.515-.41-.515-.884"/><linearGradient id="e" gradientUnits="userSpaceOnUse" x1="-213.82" y1="-764.478" x2="-213.339" y2="-764.478" gradientTransform="matrix(-26.151 -3.582 -3.582 26.151 -8299.952 19121.809)"><stop offset="0" stop-color="#F04A2B"/><stop offset="1" stop-color="#7851A1"/></linearGradient><path fill="url(#e)" d="M16.842-109.082c.219-.075.493-.038.791.122l10.286 5.594-2.648 2.62-8.429-8.336z"/></g></svg>