<svg version="1" xmlns="http://www.w3.org/2000/svg" width="239" height="182"><g fill="#86C440"><path d="M230.287 115.949c0 1.074-.873 1.945-1.95 1.945h-28.674c-1.077 0-1.951-.871-1.951-1.945v-25.503c0-1.074.874-1.944 1.951-1.944h28.674c1.077 0 1.95.87 1.95 1.944v25.503z"/><rect x="197.682" y="88.502" width="32.637" height="13.396"/><path d="M239 106.409c0 1.911-1.553 3.461-3.471 3.461-1.916 0-3.471-1.55-3.471-3.461v-15.553c0-1.912 1.555-3.461 3.471-3.461 1.918 0 3.471 1.549 3.471 3.461v15.553zM195.942 106.409c0 1.911-1.554 3.461-3.471 3.461s-3.471-1.55-3.471-3.461v-15.553c0-1.912 1.554-3.461 3.471-3.461s3.471 1.549 3.471 3.461v15.553zM214 72.86c-15.823-.048-16.183 13.726-16.183 13.726h32.366s-.51-13.677-16.183-13.726zm-7.103 8.637c-1.076 0-1.948-.87-1.948-1.943 0-1.072.873-1.942 1.948-1.942s1.948.87 1.948 1.942c0 1.073-.872 1.943-1.948 1.943zm14.206 0c-1.076 0-1.948-.87-1.948-1.943 0-1.072.872-1.942 1.948-1.942 1.075 0 1.948.87 1.948 1.942 0 1.073-.873 1.943-1.948 1.943zM206.361 74.712c.057.081.234.055.396-.059.159-.112.243-.271.186-.351l-3.023-4.255c-.058-.082-.235-.055-.394.058-.161.114-.244.271-.187.353l3.022 4.254zM221.639 74.712c-.058.081-.233.055-.396-.059-.159-.112-.243-.271-.186-.351l3.023-4.255c.058-.082.236-.055.395.058.161.114.245.271.186.353l-3.022 4.254zM224.169 126.539c0 1.912-1.554 3.461-3.471 3.461s-3.471-1.549-3.471-3.461v-15.554c0-1.911 1.554-3.461 3.471-3.461s3.471 1.55 3.471 3.461v15.554zM210.772 126.539c0 1.912-1.554 3.461-3.471 3.461s-3.471-1.549-3.471-3.461v-15.554c0-1.911 1.554-3.461 3.471-3.461s3.471 1.55 3.471 3.461v15.554z"/></g><path fill="#fff" d="M187.748 119.388c0 2.962-2.402 5.364-5.372 5.364h-175.751c-2.969 0-5.378-2.401-5.378-5.364v-42.771c0-2.962 2.409-5.371 5.378-5.371h175.75c2.971 0 5.372 2.409 5.372 5.371l.001 42.771z"/><path fill="#A7A6A6" d="M182.376 126h-175.751c-3.653 0-6.625-2.966-6.625-6.612v-42.77c0-3.65 2.972-6.618 6.625-6.618h175.75c3.648 0 6.624 2.968 6.624 6.618v42.77c.002 3.646-2.974 6.612-6.623 6.612z"/><path fill="#010101" d="M187.748 119.388c0 2.962-2.402 5.364-5.372 5.364h-175.751c-2.969 0-5.378-2.401-5.378-5.364v-42.771c0-2.962 2.409-5.371 5.378-5.371h175.75c2.971 0 5.372 2.409 5.372 5.371l.001 42.771z"/><path fill="#fff" d="M42.202 97.706c-.04-4.514 3.697-6.71 3.869-6.812-2.118-3.085-5.398-3.507-6.552-3.541-2.754-.289-5.427 1.648-6.831 1.648-1.432 0-3.593-1.621-5.923-1.572-2.997.046-5.8 1.779-7.338 4.475-3.174 5.494-.808 13.567 2.233 18.007 1.521 2.177 3.298 4.604 5.625 4.517 2.277-.091 3.127-1.45 5.875-1.45 2.721 0 3.52 1.45 5.892 1.395 2.443-.036 3.982-2.184 5.45-4.379 1.758-2.491 2.463-4.948 2.492-5.073-.057-.017-4.744-1.807-4.792-7.215z"/><path fill="#fff" d="M37.72 84.432c1.223-1.531 2.062-3.613 1.829-5.726-1.771.079-3.987 1.225-5.264 2.722-1.128 1.319-2.136 3.481-1.876 5.514 1.989.15 4.034-1.004 5.311-2.51z"/><linearGradient id="a" gradientUnits="userSpaceOnUse" x1="54.619" y1="671.15" x2="54.619" y2="620.674" gradientTransform="translate(84 -545)"><stop offset="0" stop-color="#1A1A1A" stop-opacity=".1"/><stop offset=".123" stop-color="#212121" stop-opacity=".151"/><stop offset=".308" stop-color="#353635" stop-opacity=".227"/><stop offset=".532" stop-color="#575858" stop-opacity=".318"/><stop offset=".783" stop-color="#858585" stop-opacity=".421"/><stop offset="1" stop-color="#B4B4B4" stop-opacity=".51"/></linearGradient><path fill="url(#a)" d="M182.376 70h-94.138l36.873 56h57.265c3.648 0 6.624-2.966 6.624-6.615v-42.767c.001-3.65-2.975-6.618-6.624-6.618z"/><g fill="#fff"><path d="M75.172 114.118h-3.182l-1.742-5.475h-6.057l-1.66 5.475h-3.097l6.003-18.637h3.705l6.03 18.637zm-5.449-7.771l-1.577-4.865c-.165-.499-.479-1.668-.938-3.512h-.056c-.184.792-.481 1.963-.886 3.512l-1.549 4.865h5.006zM90.577 107.232c0 2.286-.62 4.093-1.863 5.418-1.112 1.181-2.494 1.769-4.143 1.769-1.781 0-3.06-.633-3.839-1.906v7.051h-2.986v-14.469c0-1.435-.037-2.906-.109-4.417h2.625l.166 2.13h.056c.997-1.605 2.509-2.408 4.538-2.408 1.586 0 2.908.626 3.966 1.878 1.059 1.259 1.589 2.909 1.589 4.954zm-3.041.11c0-1.307-.296-2.385-.886-3.234-.646-.884-1.514-1.328-2.6-1.328-.736 0-1.407.246-2.005.733-.599.489-.991 1.13-1.175 1.923-.091.37-.139.671-.139.908v2.243c0 .974.3 1.799.899 2.474.601.673 1.379 1.009 2.337 1.009 1.125 0 2.001-.435 2.627-1.298.627-.866.942-2.011.942-3.43zM106.037 107.232c0 2.286-.62 4.093-1.863 5.418-1.112 1.181-2.495 1.769-4.144 1.769-1.78 0-3.06-.633-3.839-1.906v7.051h-2.987v-14.469c0-1.435-.037-2.906-.111-4.417h2.626l.167 2.13h.057c.995-1.605 2.507-2.408 4.535-2.408 1.584 0 2.909.626 3.971 1.878 1.057 1.259 1.588 2.909 1.588 4.954zm-3.043.11c0-1.307-.295-2.385-.886-3.234-.646-.884-1.511-1.328-2.597-1.328-.738 0-1.407.246-2.008.733-.599.489-.991 1.13-1.173 1.923-.092.37-.141.671-.141.908v2.243c0 .974.301 1.799.898 2.474.6.671 1.378 1.009 2.341 1.009 1.125 0 2.001-.435 2.626-1.298.626-.866.94-2.011.94-3.43zM123.323 108.891c0 1.586-.555 2.876-1.656 3.871-1.214 1.087-2.907 1.631-5.079 1.631-2.006 0-3.614-.385-4.826-1.16l.691-2.489c1.309.776 2.748 1.162 4.314 1.162 1.126 0 2.002-.253 2.626-.76.626-.506.942-1.183.942-2.03 0-.758-.261-1.394-.775-1.91-.517-.514-1.372-.995-2.571-1.435-3.265-1.218-4.897-2.999-4.897-5.339 0-1.529.577-2.78 1.728-3.758 1.151-.979 2.678-1.467 4.577-1.467 1.696 0 3.111.295 4.232.885l-.75 2.435c-1.055-.572-2.248-.858-3.581-.858-1.054 0-1.88.26-2.473.775-.497.46-.748 1.021-.748 1.688 0 .735.286 1.346.857 1.824.497.442 1.401.923 2.71 1.438 1.605.646 2.783 1.4 3.54 2.266.76.863 1.139 1.943 1.139 3.231zM133.222 102.919h-3.291v6.524c0 1.66.578 2.488 1.742 2.488.532 0 .976-.045 1.326-.138l.082 2.267c-.587.22-1.362.331-2.321.331-1.181 0-2.101-.361-2.768-1.081-.662-.72-.995-1.926-.995-3.622v-6.775h-1.961v-2.24h1.961v-2.461l2.934-.883v3.344h3.291v2.246zM148.045 107.287c0 2.066-.59 3.762-1.771 5.087-1.234 1.365-2.876 2.045-4.922 2.045-1.976 0-3.545-.653-4.717-1.96-1.171-1.309-1.755-2.958-1.755-4.948 0-2.083.604-3.787 1.81-5.115 1.208-1.326 2.836-1.991 4.882-1.991 1.974 0 3.557.656 4.756 1.963 1.147 1.272 1.717 2.91 1.717 4.919zm-3.097.069c0-1.231-.265-2.288-.797-3.17-.626-1.066-1.525-1.601-2.685-1.601-1.195 0-2.115.535-2.738 1.601-.536.882-.803 1.958-.803 3.226 0 1.232.267 2.29.803 3.171.645 1.068 1.545 1.601 2.714 1.601 1.141 0 2.035-.545 2.685-1.626.547-.904.821-1.968.821-3.202zM157.756 103.306c-.295-.055-.61-.082-.94-.082-1.051 0-1.863.395-2.435 1.188-.497.702-.747 1.586-.747 2.653v7.053h-2.986v-9.208c0-1.546-.029-2.959-.086-4.229h2.601l.109 2.571h.083c.317-.884.812-1.597 1.494-2.129.665-.482 1.384-.721 2.159-.721.275 0 .523.02.745.055l.003 2.849zM171.113 106.764c0 .534-.036.984-.109 1.353h-8.96c.033 1.327.468 2.344 1.301 3.045.754.625 1.732.937 2.93.937 1.326 0 2.536-.208 3.624-.633l.468 2.072c-1.271.554-2.773.829-4.505.829-2.085 0-3.721-.611-4.912-1.835-1.186-1.227-1.782-2.874-1.782-4.937 0-2.024.551-3.711 1.66-5.057 1.16-1.437 2.727-2.155 4.7-2.155 1.937 0 3.404.718 4.398 2.155.79 1.136 1.187 2.548 1.187 4.226zm-2.848-.775c.02-.887-.176-1.65-.58-2.294-.517-.834-1.312-1.249-2.379-1.249-.976 0-1.771.406-2.377 1.218-.497.645-.792 1.422-.884 2.322l6.22.003z"/></g><g fill="#fff"><path d="M63.331 88.893c-.831 0-1.55-.04-2.148-.109v-9.009c.775-.123 1.616-.19 2.529-.19 3.424 0 5.002 1.684 5.002 4.43 0 3.167-1.863 4.878-5.383 4.878zm.5-8.156c-.462 0-.854.028-1.183.096v6.848c.178.028.517.042.993.042 2.244 0 3.521-1.276 3.521-3.669-.001-2.132-1.155-3.317-3.331-3.317zM73.628 88.962c-1.929 0-3.182-1.443-3.182-3.397 0-2.04 1.279-3.492 3.291-3.492 1.902 0 3.182 1.371 3.182 3.384 0 2.062-1.318 3.505-3.291 3.505zm.056-5.819c-1.06 0-1.739.992-1.739 2.378 0 1.361.692 2.352 1.726 2.352 1.033 0 1.725-1.06 1.725-2.379-.001-1.344-.68-2.351-1.712-2.351zM87.925 82.208l-2.065 6.604h-1.347l-.856-2.869c-.217-.72-.393-1.426-.53-2.132h-.027c-.108.721-.314 1.44-.531 2.132l-.911 2.869h-1.359l-1.944-6.604h1.509l.748 3.14c.176.747.325 1.454.448 2.12h.028c.108-.555.285-1.25.543-2.107l.938-3.151h1.196l.899 3.085c.218.747.394 1.481.53 2.174h.041c.094-.679.245-1.401.446-2.174l.804-3.085 1.44-.002zM95.532 88.812h-1.468v-3.792c0-1.169-.449-1.753-1.331-1.753-.872 0-1.47.748-1.47 1.618v3.928h-1.467v-4.716c0-.585-.015-1.21-.055-1.89h1.292l.068 1.018h.041c.394-.705 1.196-1.152 2.093-1.152 1.386 0 2.298 1.06 2.298 2.785l-.001 3.954zM99.58 88.812h-1.469v-9.636h1.469v9.636zM104.933 88.962c-1.929 0-3.181-1.443-3.181-3.397 0-2.04 1.276-3.492 3.289-3.492 1.903 0 3.179 1.371 3.179 3.384.002 2.062-1.317 3.505-3.287 3.505zm.055-5.819c-1.062 0-1.741.992-1.741 2.378 0 1.361.695 2.352 1.725 2.352 1.032 0 1.725-1.06 1.725-2.379.002-1.344-.677-2.351-1.709-2.351zM114.009 88.812l-.106-.76h-.039c-.449.611-1.104.911-1.931.911-1.186 0-2.024-.829-2.024-1.944 0-1.631 1.414-2.474 3.859-2.474v-.121c0-.871-.459-1.306-1.37-1.306-.652 0-1.224.163-1.727.489l-.298-.963c.608-.381 1.372-.571 2.268-.571 1.727 0 2.597.909 2.597 2.731v2.433c0 .666.03 1.181.095 1.576l-1.324-.001zm-.201-3.291c-1.63 0-2.448.396-2.448 1.333 0 .692.42 1.031 1.006 1.031.746 0 1.441-.569 1.441-1.345v-1.019zM122.367 88.812l-.067-1.061h-.042c-.421.802-1.131 1.211-2.12 1.211-1.594 0-2.773-1.401-2.773-3.372 0-2.066 1.223-3.52 2.893-3.52.884 0 1.511.298 1.863.897h.029v-3.792h1.468v7.856c0 .639.016 1.237.055 1.78h-1.306zm-.218-3.887c0-.924-.612-1.712-1.546-1.712-1.091 0-1.754.965-1.754 2.323 0 1.332.689 2.244 1.725 2.244.923 0 1.575-.803 1.575-1.753v-1.102zM132.936 88.962c-1.93 0-3.181-1.443-3.181-3.397 0-2.04 1.277-3.492 3.291-3.492 1.902 0 3.179 1.371 3.179 3.384.001 2.062-1.316 3.505-3.289 3.505zm.055-5.819c-1.06 0-1.74.992-1.74 2.378 0 1.361.694 2.352 1.725 2.352 1.032 0 1.725-1.06 1.725-2.379.003-1.344-.677-2.351-1.71-2.351zM144.12 88.812h-1.47v-3.792c0-1.169-.448-1.753-1.333-1.753-.869 0-1.466.748-1.466 1.618v3.928h-1.468v-4.716c0-.585-.015-1.21-.055-1.89h1.289l.069 1.018h.04c.396-.705 1.197-1.153 2.095-1.153 1.386 0 2.298 1.06 2.298 2.785v3.955zM153.997 83.307h-1.614v3.208c0 .816.281 1.223.853 1.223.26 0 .476-.028.652-.067l.04 1.114c-.284.109-.665.164-1.137.164-1.158 0-1.851-.639-1.851-2.31v-3.332h-.962v-1.1h.962v-1.21l1.443-.436v1.644h1.614v1.102zM161.769 88.812h-1.467v-3.764c0-1.183-.447-1.78-1.332-1.78-.76 0-1.469.516-1.469 1.563v3.981h-1.467v-9.636h1.467v3.968h.028c.463-.718 1.131-1.072 1.986-1.072 1.398 0 2.253 1.086 2.253 2.813v3.927h.001zM169.729 85.862h-4.404c.027 1.25.856 1.956 2.082 1.956.652 0 1.251-.109 1.78-.312l.229 1.019c-.625.272-1.359.409-2.216.409-2.066 0-3.289-1.307-3.289-3.33 0-2.025 1.251-3.547 3.123-3.547 1.688 0 2.748 1.25 2.748 3.139.002.259-.01.489-.053.666zm-1.345-1.046c0-1.02-.516-1.739-1.453-1.739-.842 0-1.511.733-1.607 1.739h3.06z"/></g><g fill="#00AAA0"><path d="M47.735 69s-.005-36.856 0-39.41c.005-2.556 3.191-9.469 12.942-9.979h26.79s3.031.56 3.031 2.802v37.457s-.873 2.06-3.032 2.06h-28.246c0-.001-7.508.291-11.485 7.07"/><path d="M40.773 49.296s-.09-36.894 0-39.411c.09-2.518-1.084-8.783-11.72-9.885h-26.792s-1.623.467-2.261 2.709v37.455s.104 2.155 2.264 2.155h28.246c0-.001 6.286.197 10.263 6.977"/><path d="M114.228 39.856c-.606-2.462-2.14-4.265-5.15-4.265-4.425 0-6.279 4.055-6.279 8.168 0 4.115 1.854 8.169 6.279 8.169 3.212 0 4.977-2.493 5.267-5.616h3.53c-.289 5.137-3.792 8.679-8.797 8.679-6.191 0-9.894-5.106-9.894-11.232 0-6.125 3.703-11.231 9.894-11.231 4.658.031 8.335 2.703 8.769 7.328h-3.619zM120.706 33.039h3.298v7.958h.058c.81-1.411 2.519-2.463 4.486-2.463 3.242 0 5.295 1.802 5.295 5.287v10.66h-3.298v-9.76c-.059-2.433-.984-3.484-2.923-3.484-2.199 0-3.617 1.801-3.617 4.085v9.159h-3.298v-21.442zM148.684 51.027c0 .842.173 1.172.782 1.172.201 0 .462 0 .809-.06v2.373c-.491.18-1.532.39-2.084.39-1.33 0-2.287-.479-2.546-1.892-1.301 1.323-3.414 1.892-5.179 1.892-2.689 0-5.121-1.503-5.121-4.535 0-3.874 2.979-4.504 5.757-4.835 2.374-.449 4.486-.18 4.486-2.192 0-1.772-1.765-2.103-3.096-2.103-1.853 0-3.153.78-3.299 2.462h-3.297c.23-3.994 3.501-5.166 6.801-5.166 2.918 0 5.988 1.231 5.988 4.504v7.99zm-3.299-4.324c-1.013.692-2.604.662-4.052.932-1.418.24-2.689.781-2.689 2.583 0 1.533 1.88 1.982 3.036 1.982 1.447 0 3.705-.78 3.705-2.942v-2.555zM150.156 38.955h2.488v-4.654h3.298v4.654h2.982v2.553h-2.982v8.289c0 1.411.117 2.131 1.593 2.131.462 0 .925 0 1.389-.12v2.643c-.725.061-1.418.182-2.141.182-3.443 0-4.08-1.381-4.139-3.965v-9.16h-2.488v-2.553zM161.382 33.041h3.298v7.927h.057c.896-1.501 2.778-2.433 4.456-2.433 4.715 0 7.003 3.724 7.003 8.26 0 4.174-2.028 8.108-6.454 8.108-2.026 0-4.196-.51-5.179-2.552h-.058v2.131h-3.124v-21.441zm7.377 8.197c-2.776 0-4.195 2.192-4.195 5.496 0 3.123 1.534 5.465 4.195 5.465 3.009 0 4.138-2.763 4.138-5.465 0-2.824-1.418-5.496-4.138-5.496"/><path d="M177.697 46.703c0-4.745 2.75-8.168 7.553-8.168 4.802 0 7.552 3.424 7.552 8.168 0 4.776-2.75 8.199-7.552 8.199-4.803 0-7.553-3.423-7.553-8.199m11.806 0c0-2.672-1.303-5.465-4.253-5.465-2.952 0-4.253 2.792-4.253 5.465 0 2.704 1.301 5.496 4.253 5.496 2.95 0 4.253-2.792 4.253-5.496"/><path d="M194.274 46.703c0-4.745 2.75-8.168 7.551-8.168 4.804 0 7.552 3.424 7.552 8.168 0 4.776-2.749 8.199-7.552 8.199-4.8 0-7.551-3.423-7.551-8.199m11.807 0c0-2.672-1.304-5.465-4.255-5.465-2.951 0-4.253 2.792-4.253 5.465 0 2.704 1.303 5.496 4.253 5.496 2.951 0 4.255-2.792 4.255-5.496"/><polygon points="211.632,33.039 214.931,33.039 214.931,45.232 220.892,38.955 224.943,38.955 219.212,44.661 225.493,54.481 221.471,54.481 216.898,46.944 214.931,48.926 214.931,54.481 211.632,54.481"/><path d="M228.99 49.497c.174 1.982 1.621 2.702 3.385 2.702 1.245 0 3.415-.27 3.328-2.041-.086-1.803-2.488-2.014-4.89-2.583-2.43-.541-4.803-1.441-4.803-4.594 0-3.394 3.53-4.446 6.25-4.446 3.067 0 5.844 1.322 6.25 4.776h-3.442c-.29-1.621-1.592-2.072-3.04-2.072-.955 0-2.719.239-2.719 1.591 0 1.683 2.431 1.923 4.86 2.494 2.402.57 4.832 1.471 4.832 4.534 0 3.695-3.587 5.045-6.682 5.045-3.762 0-6.568-1.741-6.627-5.405h3.298z"/></g><path fill="#010101" d="M189 173.944c0 4.966-3.695 8.056-8.721 8.056h-171.173c-5.029 0-9.106-4.029-9.106-8.998v-38.007c0-4.967 4.077-8.995 9.106-8.995h171.173c5.026 0 8.721 4.028 8.721 8.996v38.948z"/><path fill="#fff" d="M123.335 159.705c.497-.178.752-.333.752-.689 0-1.025-1.172-2.21-2.572-2.21-1.037 0-2.984.799-2.984 3.573 0 .432.052.893.078 1.354l4.726-2.028zm3.681 6.492l-1.242 1.157c-.286.157-.571.338-.856.466-.861.387-1.739.485-2.519.485-.83 0-2.128-.054-3.456-1.001-1.842-1.285-2.646-3.492-2.646-5.414 0-3.981 3.275-5.931 5.948-5.931.934 0 1.894.229 2.673.717 1.297.849 1.634 1.951 1.82 2.542l-6.105 2.438-1.998.155c.646 3.263 2.88 5.161 5.347 5.161 1.232 0 2.148-.397 2.987-.807 0 .001.168-.087.047.032"/><path fill="#fff" d="M114.255 165.998c0 .998.181 1.154 1.034 1.232l1.326.124-.96.566h-4.574c.6-.769.702-.845.702-1.359v-.574l-.011-15.263h-2.02l1.945-.926h3.713c-.805.461-1.043.742-1.147 1.639l-.008 14.561z"/><path fill="#fff" d="M106.068 163.737c.6-.592.652-1.411.652-1.876 0-1.846-1.114-4.721-3.272-4.721-.672 0-1.403.335-1.816.851-.439.533-.571 1.229-.571 1.896 0 1.718 1.015 4.57 3.244 4.57.651-.001 1.352-.314 1.763-.72m-.747 4.879c-.213-.026-.341-.026-.599-.026-.234 0-1.636.048-2.723.41-.574.207-2.235.821-2.235 2.645 0 1.82 1.794 3.132 4.568 3.132 2.491 0 3.815-1.181 3.815-2.772 0-1.309-.857-2-2.826-3.389m1.84-11.397c.596.483 1.841 1.512 1.841 3.462 0 1.902-1.085 2.798-2.178 3.646-.335.335-.728.697-.728 1.258 0 .567.393.876.676 1.104l.937.716c1.14.954 2.18 1.825 2.18 3.598 0 2.416-2.364 4.85-6.831 4.85-3.762 0-5.581-1.771-5.581-3.67 0-.925.465-2.235 2.001-3.131 1.609-.974 3.79-1.104 4.959-1.178-.365-.468-.782-.955-.782-1.75 0-.436.133-.694.261-1.002-.284.027-.57.056-.83.056-2.753 0-4.311-2.032-4.311-4.034 0-1.181.544-2.491 1.664-3.441 1.479-1.204 3.243-1.412 4.646-1.412h5.351l-1.665.929h-1.61z"/><path fill="#fff" d="M94.311 166.175c.629-.821.781-1.848.781-2.847 0-2.262-1.09-6.574-4.31-6.574-.856 0-1.719.331-2.34.873-1.013.897-1.194 2.026-1.194 3.134 0 2.536 1.268 6.72 4.414 6.72 1.015.001 2.051-.486 2.649-1.306m-3.246 2.076c-4.127 0-6.335-3.177-6.335-6.053 0-3.362 2.775-6.238 6.724-6.238 3.817 0 6.208 2.954 6.208 6.055-.001 3.031-2.364 6.236-6.597 6.236"/><path fill="#fff" d="M80.495 166.175c.623-.821.779-1.848.779-2.847 0-2.262-1.094-6.574-4.31-6.574-.859 0-1.711.331-2.335.873-1.016.897-1.196 2.026-1.196 3.134 0 2.536 1.272 6.72 4.414 6.72 1.014.001 2.049-.486 2.648-1.306m-3.247 2.076c-4.128 0-6.332-3.177-6.332-6.053 0-3.362 2.777-6.238 6.725-6.238 3.812 0 6.201 2.954 6.201 6.055-.001 3.031-2.36 6.236-6.594 6.236"/><path fill="#fff" d="M69.266 167.361l-3.479.787c-1.411.221-2.677.414-4.019.414-6.713 0-9.271-4.887-9.271-8.71 0-4.671 3.625-9.001 9.832-9.001 1.312 0 2.577.191 3.727.501 1.825.507 2.677 1.13 3.211 1.498l-2.021 1.898-.853.189.607-.959c-.825-.794-2.337-2.261-5.208-2.261-3.84 0-6.737 2.887-6.737 7.1 0 4.526 3.308 8.782 8.612 8.782 1.56 0 2.362-.308 3.089-.599v-3.878l-3.674.194 1.948-1.035h5.157l-.63.601c-.171.143-.194.191-.242.383-.025.22-.048.916-.048 1.163v2.933z"/><path fill="#fff" d="M142.773 162.215c0-2.915-1.535-5.137-4.26-5.137-1.692 0-3.31 1.314-4.013 2.461v5.326c.703 1.148 2.321 2.511 4.013 2.511 2.726 0 4.26-2.242 4.26-5.161m-8.272 4.092v6.539h-1.313v-16.64h1.313v1.895c.855-1.225 2.418-2.195 4.233-2.195 3.257 0 5.451 2.443 5.451 6.31 0 3.841-2.194 6.335-5.451 6.335-1.714-.001-3.248-.874-4.233-2.244"/><path fill="#fff" d="M145.979 151.611h1.312v16.64h-1.312v-16.64z"/><path fill="#fff" d="M162.027 171.769c.279.124.759.201 1.065.201.802 0 1.362-.325 1.863-1.473l.958-2.146-5.174-12.145h1.466l4.437 10.525 4.394-10.525h1.486l-6.31 14.693c-.654 1.515-1.684 2.243-3.099 2.243-.425 0-.984-.075-1.312-.174l.226-1.199z"/><path fill="#fff" d="M153.53 167.268c1.116 0 1.917-.246 2.737-.733.814-.484 1.367-1.117 1.658-1.881v-2.314h-3.077c-1.175 0-2.149.257-2.915.777-.766.518-1.156 1.143-1.156 1.872 0 .686.246 1.235.736 1.652.492.42 1.163.627 2.017.627m4.661.947c-.088-.418-.154-.786-.203-1.093-.039-.308-.062-.621-.062-.941-.451.655-1.088 1.199-1.903 1.628-.814.43-1.589.642-2.652.642-1.28 0-2.272-.31-2.981-.943-.707-.63-1.063-1.484-1.063-2.565 0-1.08.516-1.956 1.542-2.626 1.026-.673 2.355-1.008 3.995-1.008h3.063v-1.497c0-.862-.298-1.539-.89-2.032-.597-.491-1.432-.74-2.514-.74-.991 0-1.793.228-2.406.67-.605.451-.91 1.012-.91 1.687h-1.346l-.027-.065c-.049-.909.373-1.708 1.268-2.396.89-.689 2.058-1.035 3.496-1.035 1.43 0 2.588.341 3.462 1.021.872.672 1.311 1.645 1.311 2.918v5.944c0 .425.019.838.074 1.239.055.402.143.804.26 1.193h-1.514z"/><path fill="#fff" d="M52.551 137.961c0-2.556 1.921-4.2 4.312-4.2 1.6 0 2.646.755 3.299 1.681l-1.169.669c-.444-.609-1.22-1.083-2.13-1.083-1.627 0-2.833 1.218-2.833 2.934 0 1.694 1.207 2.936 2.833 2.936.836 0 1.575-.377 1.945-.73v-1.255h-2.462v-1.253h3.89v3.032c-.8.889-1.958 1.486-3.373 1.486-2.39-.002-4.312-1.67-4.312-4.217"/><path fill="#fff" d="M62.018 142.017v-8.124h5.627v1.256h-4.186v2.094h4.101v1.254h-4.101v2.266h4.186v1.254h-5.627z"/><path fill="#fff" d="M71.632 142.017v-6.868h-2.487v-1.256h6.415v1.256h-2.487v6.868h-1.441z"/><path fill="#fff" d="M80.569 133.894h1.44v8.124h-1.44v-8.124z"/><path fill="#fff" d="M86.022 142.017v-6.868h-2.488v-1.256h6.415v1.256h-2.486v6.868h-1.441z"/><path fill="#fff" d="M101.521 137.961c0-1.68-1.072-2.934-2.721-2.934-1.663 0-2.722 1.254-2.722 2.934 0 1.669 1.059 2.936 2.722 2.936 1.649-.001 2.721-1.267 2.721-2.936m-6.92 0c0-2.423 1.736-4.2 4.199-4.2 2.451 0 4.201 1.777 4.201 4.2 0 2.425-1.75 4.202-4.201 4.202-2.463 0-4.199-1.777-4.199-4.202"/><path fill="#fff" d="M110.407 142.017l-4.285-5.809v5.809h-1.44v-8.124h1.478l4.199 5.627v-5.627h1.44v8.124h-1.392z"/><linearGradient id="b" gradientUnits="userSpaceOnUse" x1="-175.527" y1="672.796" x2="-174.572" y2="672.796" gradientTransform="matrix(-4.877 -21.193 -21.193 4.877 13434.797 -6840.695)"><stop offset="0" stop-color="#D7E69D"/><stop offset="1" stop-color="#01A4B6"/></linearGradient><path fill="url(#b)" d="M21.901 148.241l13.447 13.296 4.211-4.167-16.416-8.925c-.319-.174-.621-.255-.891-.255-.123.001-.24.018-.351.051"/><linearGradient id="c" gradientUnits="userSpaceOnUse" x1="-169.769" y1="679.885" x2="-168.815" y2="679.885" gradientTransform="matrix(12.482 21.317 21.317 -12.482 -12342.344 12251.809)"><stop offset="0" stop-color="#ED277B"/><stop offset="1" stop-color="#FEEB74"/></linearGradient><path fill="url(#c)" d="M35.349 161.537l4.233 4.187 5.603-3.047c1.136-.622 1.136-1.629 0-2.249l-5.625-3.058-4.211 4.167z"/><linearGradient id="d" gradientUnits="userSpaceOnUse" x1="-174.901" y1="673.984" x2="-173.949" y2="673.984" gradientTransform="matrix(-7.544 -29.109 -29.109 7.544 18327.969 -10007.891)"><stop offset="0" stop-color="#89CFBD"/><stop offset="1" stop-color="#084D9F"/></linearGradient><path fill="url(#d)" d="M21.079 149.652l.003 23.801c0 .748.312 1.24.798 1.404l13.469-13.318-13.447-13.298c-.5.155-.823.655-.823 1.411"/><linearGradient id="e" gradientUnits="userSpaceOnUse" x1="-176.634" y1="678.721" x2="-175.671" y2="678.721" gradientTransform="matrix(-26.151 3.582 3.582 26.151 -7007.375 -16949.859)"><stop offset="0" stop-color="#F04A2B"/><stop offset="1" stop-color="#7851A1"/></linearGradient><path fill="url(#e)" d="M21.88 174.857c.35.118.788.062 1.264-.196l16.436-8.938-4.231-4.185-13.469 13.319z"/></svg>